CheltenhamClassicBoldltalic.glyphspackage
{
glyphname = exclam;
layers = (
{
hints = (
{
horizontal = 1;
place = (-10,160);
type = Stem;
},
{
horizontal = 1;
place = (740,-20);
target = down;
type = TopGhost;
},
{
place = (171,150);
type = Stem;
}
);
layerId = "F75699C9-9800-49D7-954F-48F025B39DD4";
shapes = (
{
closed = 1;
nodes = (
(321,712,o),
(291,740,o),
(249,740,cs),
(179,740,o),
(170,659,o),
(166,583,cs),
(161,470,o),
(144,379,o),
(116,241,c),
(163,228,l),
(168,241,o),
(183,282,o),
(192,309,cs),
(236,434,o),
(246,461,o),
(291,565,cs),
(318,628,o),
(321,647,o),
(321,671,cs)
);
},
{
closed = 1;
nodes = (
(177,113,o),
(142,149,o),
(101,149,cs),
(59,149,o),
(26,113,o),
(26,70,cs),
(26,26,o),
(59,-10,o),
(101,-10,cs),
(142,-10,o),
(177,26,o),
(177,70,cs)
);
}
);
width = 263;
}
);
unicode = 33;
}
{
glyphname = quotedbl;
layers = (
{
hints = (
{
horizontal = 1;
place = (740,-20);
target = down;
type = TopGhost;
},
{
place = (335,122);
type = Stem;
}
);
layerId = "F75699C9-9800-49D7-954F-48F025B39DD4";
shapes = (
{
closed = 1;
nodes = (
(457,716,o),
(439,740,o),
(401,740,cs),
(361,740,o),
(337,717,o),
(331,659,cs),
(305,425,l),
(347,415,l),
(449,637,ls),
(453,646,o),
(457,667,o),
(457,676,cs)
);
},
{
closed = 1;
nodes = (
(285,716,o),
(267,740,o),
(229,740,cs),
(189,740,o),
(165,717,o),
(159,659,cs),
(133,425,l),
(175,415,l),
(277,637,ls),
(281,646,o),
(285,667,o),
(285,676,cs)
);
}
);
width = 404;
}
);
unicode = 34;
}
{
glyphname = numbersign;
layers = (
{
hints = (
{
horizontal = 1;
place = (-9,20);
type = Stem;
},
{
horizontal = 1;
place = (178,102);
type = Stem;
},
{
horizontal = 1;
place = (408,102);
type = Stem;
}
);
layerId = "F75699C9-9800-49D7-954F-48F025B39DD4";
shapes = (
{
closed = 1;
nodes = (
(542,510,l),
(593,685,l),
(537,685,l),
(486,510,l),
(373,510,l),
(424,685,l),
(368,685,l),
(317,510,l),
(175,510,l),
(144,409,l),
(287,409,l),
(250,279,l),
(111,279,l),
(81,178,l),
(219,178,l),
(166,-9,l),
(222,-9,l),
(275,178,l),
(389,178,l),
(335,-9,l),
(391,-9,l),
(445,178,l),
(589,178,l),
(619,279,l),
(475,279,l),
(512,409,l),
(653,409,l),
(683,510,l)
);
},
{
closed = 1;
nodes = (
(419,279,l),
(306,279,l),
(343,409,l),
(456,409,l)
);
}
);
width = 703;
}
);
unicode = 35;
}
{
glyphname = dollar;
layers = (
{
hints = (
{
place = (132,105);
type = Stem;
},
{
place = (412,122);
type = Stem;
}
);
layerId = "F75699C9-9800-49D7-954F-48F025B39DD4";
shapes = (
{
closed = 1;
nodes = (
(534,605,o),
(485,659,o),
(404,673,c),
(418,729,l),
(370,729,l),
(356,677,l),
(196,674,o),
(132,561,o),
(132,487,cs),
(132,401,o),
(168,349,o),
(261,291,c),
(201,49,l),
(165,54,o),
(148,62,o),
(126,76,c),
(142,94,o),
(151,112,o),
(151,137,cs),
(151,164,o),
(133,200,o),
(86,200,cs),
(39,200,o),
(19,163,o),
(19,133,cs),
(19,67,o),
(79,0,o),
(186,-11,c),
(155,-138,l),
(203,-138,l),
(235,-13,l),
(400,-7,o),
(475,86,o),
(475,202,cs),
(475,297,o),
(414,344,o),
(335,394,c),
(389,615,l),
(411,611,o),
(422,604,o),
(433,598,c),
(415,569,o),
(412,554,o),
(412,542,cs),
(412,506,o),
(445,481,o),
(477,481,cs),
(505,481,o),
(534,500,o),
(534,547,cs)
);
},
{
closed = 1;
nodes = (
(293,418,l),
(242,455,o),
(233,484,o),
(233,518,cs),
(233,572,o),
(273,608,o),
(342,619,c)
);
},
{
closed = 1;
nodes = (
(377,98,o),
(335,54,o),
(249,46,c),
(305,271,l),
(355,234,o),
(377,202,o),
(377,158,cs)
);
}
);
width = 524;
}
);
unicode = 36;
}
{
glyphname = percent;
layers = (
{
hints = (
{
horizontal = 1;
place = (-9,47);
type = Stem;
},
{
horizontal = 1;
place = (282,47);
type = Stem;
},
{
horizontal = 1;
place = (335,47);
type = Stem;
},
{
horizontal = 1;
place = (626,47);
type = Stem;
},
{
place = (71,86);
type = Stem;
},
{
place = (311,86);
type = Stem;
},
{
place = (476,86);
type = Stem;
},
{
place = (715,86);
type = Stem;
}
);
layerId = "F75699C9-9800-49D7-954F-48F025B39DD4";
shapes = (
{
closed = 1;
nodes = (
(801,325,o),
(763,382,o),
(679,382,cs),
(555,382,o),
(478,250,o),
(478,135,cs),
(478,66,o),
(509,-9,o),
(594,-9,cs),
(725,-9,o),
(801,122,o),
(801,235,cs)
);
},
{
closed = 1;
nodes = (
(673,687,l),
(630,638,o),
(549,539,o),
(393,514,c),
(394,521,o),
(394,528,o),
(394,535,cs),
(394,620,o),
(351,673,o),
(274,673,cs),
(149,673,o),
(71,541,o),
(71,425,cs),
(71,360,o),
(104,282,o),
(188,282,cs),
(294,282,o),
(365,370,o),
(388,465,c),
(472,477,o),
(524,514,o),
(560,537,c),
(564,532,l),
(126,11,l),
(194,-43,l),
(716,650,l)
);
},
{
closed = 1;
nodes = (
(311,553,o),
(307,536,o),
(302,515,c),
(244,524,o),
(229,563,o),
(229,586,cs),
(229,612,o),
(247,628,o),
(269,628,cs),
(300,628,o),
(311,600,o),
(311,571,cs)
);
},
{
closed = 1;
nodes = (
(715,230,o),
(698,169,o),
(691,148,cs),
(672,93,o),
(645,39,o),
(605,39,cs),
(573,39,o),
(562,63,o),
(562,96,cs),
(562,141,o),
(581,204,o),
(588,225,cs),
(608,281,o),
(628,334,o),
(675,334,cs),
(707,334,o),
(715,309,o),
(715,275,cs)
);
},
{
closed = 1;
nodes = (
(279,404,o),
(244,330,o),
(199,330,cs),
(167,330,o),
(155,351,o),
(155,386,cs),
(155,430,o),
(173,494,o),
(179,516,cs),
(184,532,o),
(190,545,o),
(200,569,c),
(206,529,o),
(222,490,o),
(295,468,c)
);
}
);
width = 817;
}
);
unicode = 37;
}
{
glyphname = ampersand;
layers = (
{
hints = (
{
horizontal = 1;
place = (-10,87);
type = Stem;
},
{
horizontal = 1;
place = (679,61);
type = Stem;
},
{
place = (33,135);
type = Stem;
},
{
place = (265,112);
type = Stem;
},
{
place = (514,94);
type = Stem;
}
);
layerId = "F75699C9-9800-49D7-954F-48F025B39DD4";
shapes = (
{
closed = 1;
nodes = (
(522,401,l),
(515,377,ls),
(514,375,o),
(512,367,o),
(512,361,cs),
(512,349,o),
(514,348,o),
(541,336,cs),
(553,330,o),
(565,324,o),
(565,306,cs),
(565,265,o),
(531,231,o),
(475,175,c),
(436,250,o),
(417,338,o),
(405,401,c),
(470,422,o),
(608,468,o),
(608,597,cs),
(608,676,o),
(548,740,o),
(453,740,cs),
(351,740,o),
(265,663,o),
(265,533,cs),
(265,510,o),
(267,483,o),
(273,438,c),
(174,402,o),
(33,342,o),
(33,183,cs),
(33,81,o),
(110,-10,o),
(244,-10,cs),
(313,-10,o),
(351,8,o),
(411,37,c),
(452,8,o),
(481,-10,o),
(538,-10,cs),
(624,-10,o),
(725,28,o),
(725,62,cs),
(725,70,o),
(721,78,o),
(718,83,cs),
(700,112,l),
(672,95,o),
(639,77,o),
(592,77,cs),
(544,77,o),
(526,98,o),
(513,113,c),
(552,154,o),
(587,191,o),
(616,230,cs),
(674,308,o),
(685,323,o),
(714,333,cs),
(750,345,o),
(752,347,o),
(756,364,cs),
(764,401,l)
);
},
{
closed = 1;
nodes = (
(513,541,o),
(472,490,o),
(390,468,c),
(385,502,o),
(378,539,o),
(378,571,cs),
(378,626,o),
(407,678,o),
(454,678,cs),
(492,678,o),
(513,638,o),
(513,602,cs)
);
},
{
closed = 1;
nodes = (
(351,77,o),
(325,57,o),
(285,57,cs),
(237,57,o),
(171,100,o),
(171,192,cs),
(171,308,o),
(245,350,o),
(282,361,c),
(308,213,o),
(341,145,o),
(371,93,c)
);
}
);
width = 756;
}
);
unicode = 38;
}
{
glyphname = quotesingle;
layers = (
{
hints = (
{
horizontal = 1;
place = (740,-20);
target = down;
type = TopGhost;
}
);
layerId = "F75699C9-9800-49D7-954F-48F025B39DD4";
shapes = (
{
closed = 1;
nodes = (
(285,716,o),
(267,740,o),
(229,740,cs),
(189,740,o),
(165,717,o),
(159,659,cs),
(133,425,l),
(175,415,l),
(277,637,ls),
(281,646,o),
(285,667,o),
(285,676,cs)
);
}
);
width = 232;
}
);
unicode = 39;
}
{
glyphname = parenleft;
layers = (
{
hints = (
{
horizontal = 1;
place = (740,-20);
target = down;
type = TopGhost;
},
{
place = (55,112);
type = Stem;
}
);
layerId = "F75699C9-9800-49D7-954F-48F025B39DD4";
shapes = (
{
closed = 1;
nodes = (
(404,740,l),
(335,702,o),
(239,639,o),
(173,548,cs),
(74,412,o),
(55,255,o),
(55,189,cs),
(55,31,o),
(133,-101,o),
(184,-191,c),
(213,-176,l),
(199,-133,o),
(166,-36,o),
(166,56,cs),
(166,191,o),
(195,305,o),
(239,430,cs),
(291,580,o),
(344,634,o),
(423,715,c)
);
}
);
width = 329;
}
);
unicode = 40;
}
{
glyphname = parenright;
layers = (
{
hints = (
{
horizontal = 1;
place = (740,-20);
target = down;
type = TopGhost;
},
{
place = (182,112);
type = Stem;
}
);
layerId = "F75699C9-9800-49D7-954F-48F025B39DD4";
shapes = (
{
closed = 1;
nodes = (
(294,518,o),
(216,650,o),
(164,740,c),
(136,725,l),
(152,681,o),
(182,585,o),
(182,493,cs),
(182,358,o),
(153,245,o),
(109,119,cs),
(57,-31,o),
(8,-85,o),
(-73,-166,c),
(-54,-191,l),
(14,-153,o),
(109,-90,o),
(176,1,cs),
(275,137,o),
(294,294,o),
(294,360,cs)
);
}
);
width = 329;
}
);
unicode = 41;
}
{
glyphname = asterisk;
layers = (
{
hints = (
{
horizontal = 1;
place = (393,102);
type = Stem;
},
{
horizontal = 1;
place = (549,102);
type = Stem;
},
{
horizontal = 1;
place = (740,-20);
target = down;
type = TopGhost;
},
{
place = (335,66);
type = Stem;
}
);
layerId = "F75699C9-9800-49D7-954F-48F025B39DD4";
shapes = (
{
closed = 1;
nodes = (
(532,470,o),
(505,493,o),
(480,495,cs),
(435,498,o),
(409,499,o),
(379,522,c),
(409,545,o),
(434,546,o),
(480,549,cs),
(506,551,o),
(532,576,o),
(532,607,cs),
(532,625,o),
(521,651,o),
(484,651,cs),
(459,651,o),
(442,639,o),
(431,622,cs),
(399,575,o),
(398,572,o),
(366,551,c),
(366,574,o),
(366,597,o),
(376,620,cs),
(394,662,o),
(396,667,o),
(396,684,cs),
(396,715,o),
(374,740,o),
(351,740,cs),
(325,740,o),
(302,716,o),
(302,687,cs),
(302,668,o),
(306,659,o),
(324,618,cs),
(335,594,o),
(335,563,o),
(335,551,c),
(315,556,o),
(303,561,o),
(282,593,cs),
(260,626,o),
(244,651,o),
(211,651,cs),
(185,651,o),
(163,632,o),
(163,604,cs),
(163,581,o),
(180,554,o),
(217,548,cs),
(273,540,o),
(278,539,o),
(320,522,c),
(278,504,o),
(273,505,o),
(218,496,cs),
(176,490,o),
(163,458,o),
(163,440,cs),
(163,412,o),
(185,393,o),
(211,393,cs),
(244,393,o),
(260,419,o),
(282,451,cs),
(303,483,o),
(315,488,o),
(335,493,c),
(335,478,o),
(335,451,o),
(324,426,cs),
(308,389,o),
(302,376,o),
(302,358,cs),
(302,325,o),
(328,304,o),
(350,304,cs),
(376,304,o),
(396,332,o),
(396,359,cs),
(396,377,o),
(394,382,o),
(376,424,cs),
(366,447,o),
(366,470,o),
(366,493,c),
(398,472,o),
(400,468,o),
(431,422,cs),
(450,394,o),
(475,393,o),
(484,393,cs),
(522,393,o),
(532,420,o),
(532,437,cs)
);
}
);
width = 522;
}
);
unicode = 42;
}
{
glyphname = plus;
layers = (
{
hints = (
{
horizontal = 1;
place = (250,87);
type = Stem;
},
{
place = (355,86);
type = Stem;
}
);
layerId = "F75699C9-9800-49D7-954F-48F025B39DD4";
shapes = (
{
closed = 1;
nodes = (
(665,335,l),
(440,335,l),
(440,560,l),
(355,560,l),
(355,335,l),
(130,335,l),
(130,250,l),
(355,250,l),
(355,25,l),
(440,25,l),
(440,250,l),
(665,250,l)
);
}
);
width = 740;
}
);
unicode = 43;
}
{
glyphname = comma;
layers = (
{
hints = (
{
place = (31,150);
type = Stem;
}
);
layerId = "F75699C9-9800-49D7-954F-48F025B39DD4";
shapes = (
{
closed = 1;
nodes = (
(181,107,o),
(150,149,o),
(105,149,cs),
(71,149,o),
(32,115,o),
(32,69,cs),
(32,14,o),
(76,-2,o),
(96,-10,c),
(89,-33,o),
(75,-83,o),
(0,-120,c),
(20,-165,l),
(56,-148,o),
(95,-130,o),
(133,-80,cs),
(163,-39,o),
(181,4,o),
(181,50,cs)
);
}
);
width = 262;
}
);
unicode = 44;
}
{
glyphname = hyphen;
layers = (
{
hints = (
{
horizontal = 1;
place = (156,114);
type = Stem;
}
);
layerId = "F75699C9-9800-49D7-954F-48F025B39DD4";
shapes = (
{
closed = 1;
nodes = (
(47,272,l),
(18,156,l),
(225,156,l),
(255,272,l)
);
}
);
width = 271;
}
);
unicode = 45;
}
{
glyphname = period;
layers = (
{
hints = (
{
horizontal = 1;
place = (-10,160);
type = Stem;
},
{
place = (29,150);
type = Stem;
}
);
layerId = "F75699C9-9800-49D7-954F-48F025B39DD4";
shapes = (
{
closed = 1;
nodes = (
(180,113,o),
(146,149,o),
(105,149,cs),
(64,149,o),
(29,113,o),
(29,70,cs),
(29,26,o),
(64,-10,o),
(105,-10,cs),
(146,-10,o),
(180,26,o),
(180,70,cs)
);
}
);
width = 262;
}
);
unicode = 46;
}
{
glyphname = slash;
layers = (
{
hints = (
{
horizontal = 1;
place = (730,-20);
target = down;
type = TopGhost;
}
);
layerId = "F75699C9-9800-49D7-954F-48F025B39DD4";
shapes = (
{
closed = 1;
nodes = (
(386,730,l),
(-111,-190,l),
(-28,-190,l),
(469,730,l)
);
}
);
width = 376;
}
);
unicode = 47;
}
{
glyphname = zero;
layers = (
{
hints = (
{
horizontal = 1;
place = (-10,71);
type = Stem;
},
{
horizontal = 1;
place = (610,71);
type = Stem;
},
{
place = (49,122);
type = Stem;
},
{
place = (407,122);
type = Stem;
}
);
layerId = "F75699C9-9800-49D7-954F-48F025B39DD4";
shapes = (
{
closed = 1;
nodes = (
(529,581,o),
(478,681,o),
(353,681,cs),
(164,681,o),
(49,445,o),
(49,236,cs),
(49,123,o),
(89,-10,o),
(220,-10,cs),
(415,-10,o),
(529,226,o),
(529,436,cs)
);
},
{
closed = 1;
nodes = (
(412,433,o),
(380,305,o),
(369,264,cs),
(341,163,o),
(295,56,o),
(233,56,cs),
(182,56,o),
(166,102,o),
(166,153,cs),
(166,235,o),
(199,367,o),
(210,408,cs),
(238,510,o),
(272,615,o),
(349,615,cs),
(396,615,o),
(412,573,o),
(412,520,cs)
);
}
);
width = 520;
}
);
unicode = 48;
}
{
glyphname = one;
layers = (
{
hints = (
{
horizontal = 1;
place = (0,20);
type = Stem;
},
{
horizontal = 1;
place = (680,-20);
target = down;
type = TopGhost;
}
);
layerId = "F75699C9-9800-49D7-954F-48F025B39DD4";
shapes = (
{
closed = 1;
nodes = (
(252,680,l),
(162,644,ls),
(120,627,o),
(116,627,o),
(113,614,cs),
(103,571,l),
(193,571,l),
(85,142,ls),
(78,115,o),
(72,90,o),
(67,83,cs),
(58,69,o),
(28,62,o),
(23,61,cs),
(-5,55,o),
(-5,49,o),
(-10,24,cs),
(-15,0,l),
(244,0,l),
(251,22,ls),
(254,31,o),
(256,35,o),
(256,42,cs),
(256,49,o),
(252,57,o),
(232,65,cs),
(216,71,o),
(202,76,o),
(202,97,cs),
(202,101,o),
(204,117,o),
(206,123,cs),
(344,680,l)
);
}
);
width = 330;
}
);
unicode = 49;
}
{
glyphname = two;
layers = (
{
hints = (
{
horizontal = 1;
place = (0,114);
type = Stem;
},
{
horizontal = 1;
place = (610,71);
type = Stem;
},
{
place = (85,135);
type = Stem;
},
{
place = (367,129);
type = Stem;
}
);
layerId = "F75699C9-9800-49D7-954F-48F025B39DD4";
shapes = (
{
closed = 1;
nodes = (
(496,620,o),
(407,681,o),
(297,681,cs),
(168,681,o),
(85,599,o),
(85,520,cs),
(85,484,o),
(111,449,o),
(151,449,cs),
(189,449,o),
(218,482,o),
(218,520,cs),
(218,546,o),
(204,566,o),
(188,582,c),
(220,605,o),
(244,614,o),
(278,614,cs),
(334,614,o),
(368,571,o),
(368,522,cs),
(368,424,o),
(284,339,o),
(221,286,cs),
(180,251,o),
(154,229,o),
(111,193,cs),
(63,151,o),
(26,116,o),
(15,106,cs),
(-17,76,o),
(-15,77,o),
(-22,46,cs),
(-32,0,l),
(380,0,l),
(424,169,l),
(389,173,ls),
(373,175,o),
(370,172,o),
(357,143,cs),
(345,114,o),
(328,112,o),
(304,112,cs),
(116,112,l),
(219,192,o),
(335,270,o),
(386,311,cs),
(476,384,o),
(496,452,o),
(496,508,cs)
);
}
);
width = 477;
}
);
unicode = 50;
}
{
glyphname = three;
layers = (
{
hints = (
{
horizontal = 1;
place = (-10,71);
type = Stem;
},
{
horizontal = 1;
place = (337,61);
type = Stem;
},
{
horizontal = 1;
place = (610,71);
type = Stem;
},
{
place = (116,122);
type = Stem;
},
{
place = (364,129);
type = Stem;
}
);
layerId = "F75699C9-9800-49D7-954F-48F025B39DD4";
shapes = (
{
closed = 1;
nodes = (
(493,622,o),
(408,681,o),
(289,681,cs),
(200,681,o),
(116,637,o),
(116,570,cs),
(116,541,o),
(139,509,o),
(177,509,cs),
(210,509,o),
(236,535,o),
(236,569,cs),
(236,578,o),
(235,583,o),
(230,598,c),
(249,605,o),
(269,613,o),
(293,613,cs),
(335,613,o),
(365,588,o),
(365,538,cs),
(365,499,o),
(357,465,o),
(328,434,cs),
(306,411,o),
(284,400,o),
(199,398,c),
(182,335,l),
(222,333,o),
(241,330,o),
(270,316,cs),
(295,303,o),
(317,267,o),
(317,233,cs),
(317,136,o),
(278,57,o),
(185,57,cs),
(156,57,o),
(135,66,o),
(114,79,c),
(118,93,o),
(121,104,o),
(121,119,cs),
(121,167,o),
(90,190,o),
(56,190,cs),
(21,190,o),
(-8,162,o),
(-8,123,cs),
(-8,34,o),
(87,-10,o),
(196,-10,cs),
(333,-10,o),
(447,69,o),
(447,199,cs),
(447,289,o),
(384,328,o),
(317,359,c),
(401,380,o),
(493,415,o),
(493,526,cs)
);
}
);
width = 484;
}
);
unicode = 51;
}
{
glyphname = four;
layers = (
{
hints = (
{
horizontal = 1;
place = (0,20);
type = Stem;
},
{
horizontal = 1;
place = (180,71);
type = Stem;
},
{
horizontal = 1;
place = (680,-20);
target = down;
type = TopGhost;
}
);
layerId = "F75699C9-9800-49D7-954F-48F025B39DD4";
shapes = (
{
closed = 1;
nodes = (
(420,680,l),
(24,266,l),
(3,180,l),
(260,180,l),
(241,110,ls),
(230,71,o),
(224,65,o),
(200,61,cs),
(173,56,o),
(172,48,o),
(167,24,cs),
(162,0,l),
(393,0,l),
(398,18,ls),
(400,26,o),
(403,36,o),
(403,42,cs),
(403,49,o),
(399,54,o),
(392,58,cs),
(372,68,o),
(363,73,o),
(363,88,cs),
(363,93,o),
(366,106,o),
(367,113,cs),
(381,180,l),
(470,180,l),
(487,250,l),
(401,250,l),
(506,680,l)
);
},
{
closed = 1;
nodes = (
(280,250,l),
(101,250,l),
(347,511,l),
(349,509,l)
);
}
);
width = 501;
}
);
unicode = 52;
}
{
glyphname = five;
layers = (
{
hints = (
{
horizontal = 1;
place = (-10,61);
type = Stem;
},
{
horizontal = 1;
place = (340,87);
type = Stem;
},
{
horizontal = 1;
place = (557,114);
type = Stem;
},
{
place = (5,129);
type = Stem;
},
{
place = (336,129);
type = Stem;
}
);
layerId = "F75699C9-9800-49D7-954F-48F025B39DD4";
shapes = (
{
closed = 1;
nodes = (
(502,712,ls),
(486,712,o),
(484,708,o),
(480,700,cs),
(466,676,o),
(462,671,o),
(437,671,cs),
(198,671,l),
(82,341,l),
(116,302,l),
(164,329,o),
(187,339,o),
(227,339,cs),
(302,339,o),
(336,296,o),
(336,231,cs),
(336,127,o),
(275,55,o),
(193,55,cs),
(161,55,o),
(138,65,o),
(114,76,c),
(129,98,o),
(134,110,o),
(134,130,cs),
(134,166,o),
(109,196,o),
(71,196,cs),
(26,196,o),
(5,156,o),
(5,126,cs),
(5,42,o),
(89,-10,o),
(196,-10,cs),
(363,-10,o),
(465,126,o),
(465,254,cs),
(465,350,o),
(412,427,o),
(297,427,cs),
(243,427,o),
(218,413,o),
(163,388,c),
(221,557,l),
(487,557,l),
(535,712,l)
);
}
);
width = 484;
}
);
unicode = 53;
}
{
glyphname = six;
layers = (
{
hints = (
{
horizontal = 1;
place = (-10,71);
type = Stem;
},
{
horizontal = 1;
place = (346,71);
type = Stem;
},
{
horizontal = 1;
place = (620,61);
type = Stem;
},
{
place = (50,112);
type = Stem;
},
{
place = (353,129);
type = Stem;
}
);
layerId = "F75699C9-9800-49D7-954F-48F025B39DD4";
shapes = (
{
closed = 1;
nodes = (
(530,634,o),
(473,681,o),
(391,681,cs),
(183,681,o),
(50,428,o),
(50,227,cs),
(50,91,o),
(126,-10,o),
(243,-10,cs),
(379,-10,o),
(482,110,o),
(482,240,cs),
(482,342,o),
(418,417,o),
(328,417,cs),
(281,417,o),
(247,403,o),
(200,377,c),
(221,459,o),
(237,492,o),
(250,520,cs),
(291,604,o),
(347,619,o),
(372,619,cs),
(387,619,o),
(399,617,o),
(411,608,c),
(402,591,o),
(398,579,o),
(398,562,cs),
(398,521,o),
(430,492,o),
(465,492,cs),
(494,492,o),
(530,515,o),
(530,568,cs)
);
},
{
closed = 1;
nodes = (
(353,159,o),
(313,58,o),
(238,58,cs),
(192,58,o),
(159,96,o),
(159,158,cs),
(159,180,o),
(161,207,o),
(164,228,cs),
(168,251,o),
(176,283,o),
(182,305,c),
(202,320,o),
(235,342,o),
(273,342,cs),
(328,342,o),
(353,299,o),
(353,252,cs)
);
}
);
width = 500;
}
);
unicode = 54;
}
{
glyphname = seven;
layers = (
{
hints = (
{
horizontal = 1;
place = (-10,20);
type = Stem;
},
{
horizontal = 1;
place = (557,114);
type = Stem;
}
);
layerId = "F75699C9-9800-49D7-954F-48F025B39DD4";
shapes = (
{
closed = 1;
nodes = (
(225,671,ls),
(177,671,o),
(150,676,o),
(124,682,c),
(68,509,l),
(91,503,ls),
(114,497,o),
(122,507,o),
(150,549,cs),
(156,557,o),
(161,562,o),
(186,562,cs),
(389,562,l),
(238,387,o),
(196,335,o),
(149,257,cs),
(116,203,o),
(77,131,o),
(77,70,cs),
(77,26,o),
(103,-10,o),
(142,-10,cs),
(186,-10,o),
(207,30,o),
(215,63,cs),
(219,82,o),
(234,157,o),
(240,181,cs),
(280,333,o),
(399,490,o),
(501,602,c),
(521,671,l)
);
}
);
width = 421;
}
);
unicode = 55;
}
{
glyphname = eight;
layers = (
{
hints = (
{
horizontal = 1;
place = (-11,61);
type = Stem;
},
{
horizontal = 1;
place = (621,61);
type = Stem;
},
{
place = (125,112);
type = Stem;
},
{
place = (374,112);
type = Stem;
}
);
layerId = "F75699C9-9800-49D7-954F-48F025B39DD4";
shapes = (
{
closed = 1;
nodes = (
(507,618,o),
(434,682,o),
(326,682,cs),
(214,682,o),
(125,601,o),
(125,494,cs),
(125,432,o),
(158,388,o),
(201,347,c),
(97,318,o),
(37,251,o),
(37,168,cs),
(37,70,o),
(121,-11,o),
(250,-11,cs),
(390,-11,o),
(486,87,o),
(486,199,cs),
(486,271,o),
(449,317,o),
(381,368,c),
(440,391,o),
(507,429,o),
(507,524,cs)
);
},
{
closed = 1;
nodes = (
(418,486,o),
(408,435,o),
(333,400,c),
(273,440,o),
(232,470,o),
(232,535,cs),
(232,579,o),
(271,622,o),
(323,622,cs),
(374,622,o),
(418,586,o),
(418,528,cs)
);
},
{
closed = 1;
nodes = (
(373,108,o),
(334,56,o),
(267,54,cs),
(196,52,o),
(138,91,o),
(138,159,cs),
(138,229,o),
(174,277,o),
(251,311,c),
(326,260,o),
(373,228,o),
(373,161,cs)
);
}
);
width = 509;
}
);
unicode = 56;
}
{
glyphname = nine;
layers = (
{
hints = (
{
horizontal = 1;
place = (-10,61);
type = Stem;
},
{
horizontal = 1;
place = (254,71);
type = Stem;
},
{
horizontal = 1;
place = (610,71);
type = Stem;
},
{
place = (70,129);
type = Stem;
},
{
place = (390,112);
type = Stem;
}
);
layerId = "F75699C9-9800-49D7-954F-48F025B39DD4";
shapes = (
{
closed = 1;
nodes = (
(502,580,o),
(445,681,o),
(316,681,cs),
(180,681,o),
(70,560,o),
(70,431,cs),
(70,329,o),
(128,254,o),
(224,254,cs),
(271,254,o),
(305,268,o),
(352,295,c),
(331,211,o),
(315,179,o),
(302,151,cs),
(261,66,o),
(205,52,o),
(180,52,cs),
(165,52,o),
(153,54,o),
(142,62,c),
(149,79,o),
(154,94,o),
(154,111,cs),
(154,152,o),
(123,179,o),
(88,179,cs),
(60,179,o),
(22,156,o),
(22,103,cs),
(22,37,o),
(79,-10,o),
(161,-10,cs),
(369,-10,o),
(502,243,o),
(502,444,cs)
);
},
{
closed = 1;
nodes = (
(393,496,o),
(391,464,o),
(388,443,cs),
(384,420,o),
(375,388,o),
(369,366,c),
(349,351,o),
(318,329,o),
(280,329,cs),
(225,329,o),
(199,374,o),
(199,421,cs),
(199,514,o),
(240,613,o),
(314,613,cs),
(361,613,o),
(393,580,o),
(393,518,cs)
);
}
);
width = 500;
}
);
unicode = 57;
}
{
glyphname = colon;
layers = (
{
hints = (
{
horizontal = 1;
place = (-10,160);
type = Stem;
},
{
horizontal = 1;
place = (270,160);
type = Stem;
},
{
place = (41,150);
type = Stem;
}
);
layerId = "F75699C9-9800-49D7-954F-48F025B39DD4";
shapes = (
{
closed = 1;
nodes = (
(253,394,o),
(218,430,o),
(178,430,cs),
(136,430,o),
(102,394,o),
(102,351,cs),
(102,307,o),
(136,271,o),
(178,271,cs),
(218,271,o),
(253,307,o),
(253,351,cs)
);
},
{
closed = 1;
nodes = (
(192,113,o),
(158,149,o),
(117,149,cs),
(75,149,o),
(41,113,o),
(41,70,cs),
(41,26,o),
(75,-10,o),
(117,-10,cs),
(158,-10,o),
(192,26,o),
(192,70,cs)
);
}
);
width = 285;
}
);
unicode = 58;
}
{
glyphname = semicolon;
layers = (
{
hints = (
{
horizontal = 1;
place = (270,160);
type = Stem;
},
{
place = (103,150);
type = Stem;
}
);
layerId = "F75699C9-9800-49D7-954F-48F025B39DD4";
shapes = (
{
closed = 1;
nodes = (
(253,394,o),
(219,430,o),
(178,430,cs),
(136,430,o),
(102,394,o),
(102,351,cs),
(102,307,o),
(136,271,o),
(178,271,cs),
(219,271,o),
(253,307,o),
(253,351,cs)
);
},
{
closed = 1;
nodes = (
(192,107,o),
(161,149,o),
(116,149,cs),
(82,149,o),
(43,115,o),
(43,69,cs),
(43,14,o),
(86,-2,o),
(106,-10,c),
(100,-33,o),
(85,-83,o),
(10,-120,c),
(30,-165,l),
(66,-148,o),
(105,-130,o),
(143,-80,cs),
(174,-39,o),
(192,4,o),
(192,50,cs)
);
}
);
width = 285;
}
);
unicode = 59;
}
{
glyphname = less;
layers = (
{
layerId = "F75699C9-9800-49D7-954F-48F025B39DD4";
shapes = (
{
closed = 1;
nodes = (
(660,107,l),
(252,292,l),
(660,477,l),
(660,575,l),
(134,327,l),
(134,257,l),
(660,9,l)
);
}
);
width = 740;
}
);
unicode = 60;
}
{
glyphname = equal;
layers = (
{
hints = (
{
horizontal = 1;
place = (158,87);
type = Stem;
},
{
horizontal = 1;
place = (340,87);
type = Stem;
}
);
layerId = "F75699C9-9800-49D7-954F-48F025B39DD4";
shapes = (
{
closed = 1;
nodes = (
(655,427,l),
(140,427,l),
(140,342,l),
(655,342,l)
);
},
{
closed = 1;
nodes = (
(655,243,l),
(140,243,l),
(140,158,l),
(655,158,l)
);
}
);
width = 740;
}
);
unicode = 61;
}
{
glyphname = greater;
layers = (
{
layerId = "F75699C9-9800-49D7-954F-48F025B39DD4";
shapes = (
{
closed = 1;
nodes = (
(663,327,l),
(137,575,l),
(137,477,l),
(545,292,l),
(137,107,l),
(137,9,l),
(663,257,l)
);
}
);
width = 740;
}
);
unicode = 62;
}
{
glyphname = question;
layers = (
{
hints = (
{
horizontal = 1;
place = (-10,160);
type = Stem;
},
{
horizontal = 1;
place = (679,61);
type = Stem;
},
{
place = (135,122);
type = Stem;
},
{
place = (332,122);
type = Stem;
}
);
layerId = "F75699C9-9800-49D7-954F-48F025B39DD4";
shapes = (
{
closed = 1;
nodes = (
(454,670,o),
(389,740,o),
(292,740,cs),
(235,740,o),
(135,715,o),
(135,627,cs),
(135,596,o),
(158,564,o),
(198,564,cs),
(231,564,o),
(261,587,o),
(261,631,cs),
(261,649,o),
(256,658,o),
(251,668,c),
(259,673,o),
(269,679,o),
(282,679,cs),
(308,679,o),
(333,653,o),
(333,603,cs),
(333,535,o),
(294,488,o),
(246,429,cs),
(198,369,o),
(170,326,o),
(163,249,c),
(217,244,l),
(235,294,o),
(255,348,o),
(330,407,cs),
(410,471,o),
(454,505,o),
(454,585,cs)
);
},
{
closed = 1;
nodes = (
(232,113,o),
(198,149,o),
(156,149,cs),
(114,149,o),
(81,113,o),
(81,70,cs),
(81,26,o),
(114,-10,o),
(156,-10,cs),
(198,-10,o),
(232,26,o),
(232,70,cs)
);
}
);
width = 416;
}
);
unicode = 63;
}
{
glyphname = at;
layers = (
{
hints = (
{
horizontal = 1;
place = (-217,61);
type = Stem;
},
{
horizontal = 1;
place = (-5,87);
type = Stem;
},
{
horizontal = 1;
place = (364,61);
type = Stem;
},
{
horizontal = 1;
place = (579,61);
type = Stem;
},
{
place = (59,86);
type = Stem;
},
{
place = (262,112);
type = Stem;
},
{
place = (806,59);
type = Stem;
}
);
layerId = "F75699C9-9800-49D7-954F-48F025B39DD4";
shapes = (
{
closed = 1;
nodes = (
(865,514,o),
(733,640,o),
(529,640,cs),
(271,640,o),
(59,414,o),
(59,162,cs),
(59,-61,o),
(214,-217,o),
(453,-217,cs),
(558,-217,o),
(664,-181,o),
(758,-114,c),
(739,-69,l),
(651,-127,o),
(562,-157,o),
(455,-157,cs),
(268,-157,o),
(147,-34,o),
(147,155,cs),
(147,387,o),
(313,584,o),
(537,584,cs),
(709,584,o),
(807,471,o),
(807,332,cs),
(807,187,o),
(727,62,o),
(636,62,cs),
(632,62,o),
(620,69,o),
(620,80,cs),
(620,89,o),
(624,109,o),
(629,127,cs),
(697,381,ls),
(699,390,o),
(706,412,o),
(706,416,cs),
(706,422,o),
(706,426,o),
(697,426,cs),
(689,426,o),
(684,421,o),
(681,418,cs),
(638,386,o),
(637,383,o),
(625,383,cs),
(614,383,o),
(602,391,o),
(589,401,cs),
(575,413,o),
(553,425,o),
(511,425,cs),
(382,425,o),
(262,296,o),
(262,139,cs),
(262,54,o),
(303,-5,o),
(378,-5,cs),
(434,-5,o),
(478,33,o),
(503,63,c),
(511,39,o),
(526,-5,o),
(580,-5,cs),
(752,-5,o),
(865,157,o),
(865,332,cs)
);
},
{
closed = 1;
nodes = (
(565,308,o),
(561,294,o),
(560,289,cs),
(521,133,l),
(498,107,o),
(471,85,o),
(432,85,cs),
(396,85,o),
(377,117,o),
(377,161,cs),
(377,252,o),
(436,367,o),
(514,367,cs),
(553,367,o),
(565,335,o),
(565,316,cs)
);
}
);
width = 908;
}
);
unicode = 64;
}
{
glyphname = A;
layers = (
{
hints = (
{
horizontal = 1;
place = (0,20);
type = Stem;
},
{
horizontal = 1;
place = (180,71);
type = Stem;
},
{
horizontal = 1;
place = (740,-20);
target = down;
type = TopGhost;
}
);
layerId = "F75699C9-9800-49D7-954F-48F025B39DD4";
shapes = (
{
closed = 1;
nodes = (
(629,49,o),
(629,56,o),
(600,65,cs),
(580,71,o),
(575,74,o),
(563,142,cs),
(461,701,ls),
(455,736,o),
(452,740,o),
(439,740,cs),
(432,740,o),
(426,738,o),
(408,729,cs),
(324,689,l),
(342,591,l),
(28,113,ls),
(1,71,o),
(-3,66,o),
(-28,59,cs),
(-40,56,o),
(-51,53,o),
(-56,31,cs),
(-63,0,l),
(146,0,l),
(152,27,ls),
(153,30,o),
(154,35,o),
(154,39,cs),
(154,49,o),
(147,54,o),
(133,60,cs),
(126,63,o),
(114,70,o),
(114,84,cs),
(114,91,o),
(119,102,o),
(122,106,cs),
(166,180,l),
(422,180,l),
(432,116,ls),
(433,110,o),
(436,93,o),
(436,88,cs),
(436,82,o),
(434,76,o),
(430,73,cs),
(427,70,o),
(405,55,o),
(391,46,c),
(388,43,o),
(385,39,o),
(383,29,cs),
(377,0,l),
(621,0,l),
(625,17,ls),
(627,24,o),
(629,33,o),
(629,38,cs)
);
},
{
closed = 1;
nodes = (
(213,250,l),
(366,495,l),
(408,250,l)
);
}
);
width = 660;
}
);
unicode = 65;
}
{
glyphname = B;
layers = (
{
hints = (
{
horizontal = 1;
place = (0,71);
type = Stem;
},
{
horizontal = 1;
place = (340,71);
type = Stem;
},
{
horizontal = 1;
place = (659,71);
type = Stem;
},
{
place = (447,135);
type = Stem;
}
);
layerId = "F75699C9-9800-49D7-954F-48F025B39DD4";
shapes = (
{
closed = 1;
nodes = (
(631,655,o),
(558,730,o),
(412,730,cs),
(151,730,l),
(142,697,l),
(142,693,o),
(140,687,o),
(140,682,cs),
(140,674,o),
(146,672,o),
(158,666,cs),
(176,657,o),
(181,653,o),
(181,642,cs),
(181,628,o),
(177,607,o),
(173,593,cs),
(55,117,ls),
(46,79,o),
(37,72,o),
(17,65,cs),
(-11,55,o),
(-11,51,o),
(-15,28,cs),
(-20,0,l),
(334,0,ls),
(534,0,o),
(582,136,o),
(582,196,cs),
(582,342,o),
(426,367,o),
(390,372,c),
(390,374,l),
(510,381,o),
(631,438,o),
(631,566,cs)
);
},
{
closed = 1;
nodes = (
(495,490,o),
(448,451,o),
(423,436,cs),
(384,412,o),
(337,412,o),
(266,411,c),
(327,660,l),
(403,660,o),
(495,660,o),
(495,558,cs)
);
},
{
closed = 1;
nodes = (
(446,189,o),
(430,145,o),
(402,116,cs),
(382,95,o),
(345,74,o),
(279,74,cs),
(182,74,l),
(248,341,l),
(319,341,o),
(446,342,o),
(446,229,cs)
);
}
);
width = 612;
}
);
unicode = 66;
}
{
glyphname = C;
layers = (
{
hints = (
{
horizontal = 1;
place = (-10,94);
type = Stem;
},
{
horizontal = 1;
place = (669,71);
type = Stem;
},
{
place = (52,135);
type = Stem;
}
);
layerId = "F75699C9-9800-49D7-954F-48F025B39DD4";
shapes = (
{
closed = 1;
nodes = (
(632,696,l),
(605,683,l),
(559,718,o),
(522,740,o),
(444,740,cs),
(181,740,o),
(52,484,o),
(52,280,cs),
(52,97,o),
(180,-10,o),
(313,-10,cs),
(456,-10,o),
(570,107,o),
(570,139,cs),
(570,147,o),
(563,155,o),
(560,158,cs),
(533,191,l),
(466,119,o),
(408,85,o),
(332,85,cs),
(231,85,o),
(190,173,o),
(190,259,cs),
(190,397,o),
(258,670,o),
(451,670,cs),
(484,670,o),
(540,660,o),
(563,599,cs),
(571,579,o),
(572,558,o),
(572,535,cs),
(572,525,o),
(572,506,o),
(589,506,cs),
(633,506,l),
(682,696,l)
);
}
);
width = 601;
}
);
unicode = 67;
}
{
glyphname = D;
layers = (
{
hints = (
{
horizontal = 1;
place = (0,71);
type = Stem;
},
{
horizontal = 1;
place = (659,71);
type = Stem;
},
{
place = (557,135);
type = Stem;
}
);
layerId = "F75699C9-9800-49D7-954F-48F025B39DD4";
shapes = (
{
closed = 1;
nodes = (
(692,609,o),
(589,730,o),
(386,730,cs),
(151,730,l),
(142,697,l),
(142,693,o),
(140,687,o),
(140,682,cs),
(140,674,o),
(146,672,o),
(158,666,cs),
(176,657,o),
(181,653,o),
(181,642,cs),
(181,628,o),
(177,607,o),
(173,593,cs),
(55,117,ls),
(46,79,o),
(37,72,o),
(17,65,cs),
(-11,55,o),
(-11,51,o),
(-15,28,cs),
(-20,0,l),
(306,0,ls),
(403,0,o),
(487,37,o),
(539,80,cs),
(623,151,o),
(692,264,o),
(692,425,cs)
);
},
{
closed = 1;
nodes = (
(556,352,o),
(519,244,o),
(467,168,cs),
(409,82,o),
(309,71,o),
(243,71,cs),
(182,71,l),
(328,660,l),
(397,660,o),
(444,655,o),
(482,634,cs),
(540,602,o),
(556,526,o),
(556,479,cs)
);
}
);
width = 677;
}
);
unicode = 68;
}
{
glyphname = E;
layers = (
{
hints = (
{
horizontal = 1;
place = (0,71);
type = Stem;
},
{
horizontal = 1;
place = (339,71);
type = Stem;
},
{
horizontal = 1;
place = (652,78);
type = Stem;
}
);
layerId = "F75699C9-9800-49D7-954F-48F025B39DD4";
shapes = (
{
closed = 1;
nodes = (
(632,740,l),
(569,734,o),
(528,730,o),
(495,730,cs),
(151,730,l),
(142,697,l),
(142,693,o),
(140,687,o),
(140,682,cs),
(140,674,o),
(146,672,o),
(158,666,cs),
(176,657,o),
(181,653,o),
(181,642,cs),
(181,628,o),
(177,607,o),
(173,593,cs),
(55,117,ls),
(46,79,o),
(37,72,o),
(17,65,cs),
(-11,55,o),
(-11,51,o),
(-15,28,cs),
(-20,0,l),
(374,0,ls),
(423,0,o),
(484,-8,o),
(503,-10,c),
(552,175,l),
(503,175,ls),
(495,175,o),
(492,173,o),
(481,156,cs),
(468,135,o),
(417,70,o),
(316,70,cs),
(181,70,l),
(248,340,l),
(286,340,ls),
(334,340,o),
(357,323,o),
(362,288,cs),
(366,264,o),
(367,261,o),
(382,261,cs),
(418,261,l),
(465,455,l),
(425,455,ls),
(420,455,o),
(417,454,o),
(413,449,cs),
(393,425,o),
(380,410,o),
(332,410,cs),
(266,410,l),
(325,653,l),
(377,653,ls),
(488,653,o),
(508,638,o),
(522,603,cs),
(535,569,o),
(537,567,o),
(552,567,cs),
(586,567,l)
);
}
);
width = 580;
}
);
unicode = 69;
}
{
glyphname = F;
layers = (
{
hints = (
{
horizontal = 1;
place = (0,20);
type = Stem;
},
{
horizontal = 1;
place = (340,71);
type = Stem;
},
{
horizontal = 1;
place = (652,78);
type = Stem;
}
);
layerId = "F75699C9-9800-49D7-954F-48F025B39DD4";
shapes = (
{
closed = 1;
nodes = (
(674,740,l),
(599,733,o),
(563,730,o),
(535,730,cs),
(151,730,l),
(142,697,l),
(142,693,o),
(140,687,o),
(140,682,cs),
(140,674,o),
(146,672,o),
(158,666,cs),
(176,657,o),
(181,653,o),
(181,642,cs),
(181,628,o),
(177,607,o),
(173,593,cs),
(55,117,ls),
(46,79,o),
(37,72,o),
(17,65,cs),
(-11,55,o),
(-11,51,o),
(-15,28,cs),
(-20,0,l),
(220,0,l),
(229,33,ls),
(230,37,o),
(232,43,o),
(232,48,cs),
(232,56,o),
(225,58,o),
(214,64,cs),
(196,73,o),
(190,77,o),
(190,88,cs),
(190,102,o),
(195,122,o),
(199,137,cs),
(249,341,l),
(301,341,ls),
(378,341,o),
(383,322,o),
(386,301,cs),
(389,284,o),
(391,268,o),
(405,268,cs),
(446,268,l),
(496,459,l),
(455,459,ls),
(450,459,o),
(446,459,o),
(439,451,cs),
(408,419,o),
(403,411,o),
(352,411,cs),
(267,411,l),
(326,653,l),
(468,653,ls),
(524,653,o),
(554,634,o),
(566,596,cs),
(573,573,o),
(576,564,o),
(588,564,cs),
(631,564,l)
);
}
);
width = 559;
}
);
unicode = 70;
}
{
glyphname = G;
layers = (
{
hints = (
{
horizontal = 1;
place = (-10,71);
type = Stem;
},
{
horizontal = 1;
place = (669,71);
type = Stem;
},
{
place = (52,135);
type = Stem;
},
{
place = (493,112);
type = Stem;
}
);
layerId = "F75699C9-9800-49D7-954F-48F025B39DD4";
shapes = (
{
closed = 1;
nodes = (
(643,693,l),
(619,679,l),
(588,703,o),
(541,740,o),
(442,740,cs),
(209,740,o),
(52,531,o),
(52,318,cs),
(52,88,o),
(219,-10,o),
(381,-10,cs),
(475,-10,o),
(559,14,o),
(595,28,cs),
(617,36,o),
(637,47,o),
(637,74,cs),
(637,88,o),
(635,90,o),
(623,100,cs),
(612,110,o),
(605,118,o),
(605,145,cs),
(605,176,o),
(609,199,o),
(653,308,c),
(456,308,l),
(448,278,ls),
(447,274,o),
(446,267,o),
(446,263,cs),
(446,256,o),
(453,252,o),
(467,245,cs),
(487,235,o),
(489,227,o),
(489,216,cs),
(489,191,o),
(480,157,o),
(472,134,cs),
(461,100,o),
(443,60,o),
(363,60,cs),
(245,60,o),
(189,173,o),
(189,289,cs),
(189,422,o),
(249,670,o),
(443,670,cs),
(476,670,o),
(515,659,o),
(542,634,cs),
(569,610,o),
(574,571,o),
(577,538,cs),
(581,503,o),
(585,500,o),
(613,500,cs),
(639,500,l),
(690,693,l)
);
}
);
width = 674;
}
);
unicode = 71;
}
{
glyphname = H;
layers = (
{
hints = (
{
horizontal = 1;
place = (0,20);
type = Stem;
},
{
horizontal = 1;
place = (337,71);
type = Stem;
},
{
horizontal = 1;
place = (730,-20);
target = down;
type = TopGhost;
}
);
layerId = "F75699C9-9800-49D7-954F-48F025B39DD4";
shapes = (
{
closed = 1;
nodes = (
(569,730,l),
(560,697,l),
(560,693,o),
(558,687,o),
(558,682,cs),
(558,674,o),
(564,672,o),
(576,666,cs),
(594,657,o),
(599,653,o),
(599,642,cs),
(599,628,o),
(595,607,o),
(591,593,cs),
(545,408,l),
(266,408,l),
(316,613,ls),
(325,650,o),
(334,658,o),
(354,665,cs),
(383,675,o),
(384,679,o),
(387,702,cs),
(391,730,l),
(151,730,l),
(142,697,l),
(142,693,o),
(140,687,o),
(140,682,cs),
(140,674,o),
(146,672,o),
(158,666,cs),
(176,657,o),
(181,653,o),
(181,642,cs),
(181,628,o),
(177,607,o),
(173,593,cs),
(55,117,ls),
(46,79,o),
(37,72,o),
(17,65,cs),
(-11,55,o),
(-11,51,o),
(-15,28,cs),
(-20,0,l),
(220,0,l),
(229,33,ls),
(230,37,o),
(232,43,o),
(232,48,cs),
(232,56,o),
(225,58,o),
(214,64,cs),
(196,73,o),
(190,77,o),
(190,88,cs),
(190,102,o),
(195,122,o),
(199,137,cs),
(248,338,l),
(528,338,l),
(473,117,ls),
(464,79,o),
(455,72,o),
(435,65,cs),
(407,55,o),
(407,51,o),
(403,28,cs),
(398,0,l),
(638,0,l),
(647,33,ls),
(648,37,o),
(650,43,o),
(650,48,cs),
(650,56,o),
(643,58,o),
(632,64,cs),
(614,73,o),
(608,77,o),
(608,88,cs),
(608,102,o),
(613,122,o),
(617,137,cs),
(734,613,ls),
(743,650,o),
(752,658,o),
(772,665,cs),
(801,675,o),
(802,679,o),
(805,702,cs),
(809,730,l)
);
}
);
width = 725;
}
);
unicode = 72;
}
{
glyphname = I;
layers = (
{
hints = (
{
horizontal = 1;
place = (0,20);
type = Stem;
},
{
horizontal = 1;
place = (730,-20);
target = down;
type = TopGhost;
}
);
layerId = "F75699C9-9800-49D7-954F-48F025B39DD4";
shapes = (
{
closed = 1;
nodes = (
(154,730,l),
(145,697,ls),
(144,693,o),
(142,687,o),
(142,682,cs),
(142,674,o),
(149,672,o),
(161,666,cs),
(179,657,o),
(185,653,o),
(185,642,cs),
(185,628,o),
(180,607,o),
(177,593,cs),
(59,117,ls),
(50,79,o),
(40,72,o),
(20,65,cs),
(-9,55,o),
(-8,51,o),
(-12,28,cs),
(-17,0,l),
(225,0,l),
(234,33,ls),
(235,37,o),
(237,43,o),
(237,48,cs),
(237,56,o),
(230,58,o),
(218,64,cs),
(200,73,o),
(194,77,o),
(194,88,cs),
(194,102,o),
(198,122,o),
(202,137,cs),
(320,613,ls),
(329,650,o),
(339,658,o),
(359,665,cs),
(388,675,o),
(387,679,o),
(391,702,cs),
(396,730,l)
);
}
);
width = 314;
}
);
unicode = 73;
}
{
glyphname = J;
layers = (
{
hints = (
{
horizontal = 1;
place = (-10,71);
type = Stem;
},
{
horizontal = 1;
place = (730,-20);
target = down;
type = TopGhost;
},
{
place = (-37,135);
type = Stem;
}
);
layerId = "F75699C9-9800-49D7-954F-48F025B39DD4";
shapes = (
{
closed = 1;
nodes = (
(287,730,l),
(278,697,ls),
(277,693,o),
(275,687,o),
(275,682,cs),
(275,674,o),
(282,672,o),
(294,666,cs),
(313,657,o),
(316,653,o),
(316,642,cs),
(316,628,o),
(312,609,o),
(308,593,cs),
(222,212,ls),
(210,157,o),
(184,59,o),
(118,59,cs),
(104,59,o),
(95,63,o),
(86,71,c),
(88,76,o),
(96,103,o),
(96,123,cs),
(96,150,o),
(73,187,o),
(31,187,cs),
(-8,187,o),
(-37,154,o),
(-37,107,cs),
(-37,67,o),
(-5,-10,o),
(106,-10,cs),
(247,-10,o),
(330,69,o),
(366,232,cs),
(451,613,ls),
(459,650,o),
(469,658,o),
(489,665,cs),
(517,675,o),
(518,678,o),
(522,702,cs),
(527,730,l)
);
}
);
width = 438;
}
);
unicode = 74;
}
{
glyphname = K;
layers = (
{
hints = (
{
horizontal = 1;
place = (0,20);
type = Stem;
},
{
horizontal = 1;
place = (730,-20);
target = down;
type = TopGhost;
}
);
layerId = "F75699C9-9800-49D7-954F-48F025B39DD4";
shapes = (
{
closed = 1;
nodes = (
(520,730,l),
(511,698,ls),
(510,693,o),
(508,688,o),
(508,683,cs),
(508,675,o),
(512,673,o),
(522,668,cs),
(536,661,o),
(541,659,o),
(541,655,cs),
(541,647,o),
(520,630,o),
(512,624,cs),
(272,441,l),
(315,613,ls),
(324,650,o),
(333,658,o),
(353,665,cs),
(382,675,o),
(383,679,o),
(386,702,cs),
(390,730,l),
(151,730,l),
(142,697,l),
(142,693,o),
(140,687,o),
(140,682,cs),
(140,674,o),
(146,672,o),
(158,666,cs),
(176,657,o),
(181,653,o),
(181,642,cs),
(181,628,o),
(177,607,o),
(173,593,cs),
(55,117,ls),
(46,79,o),
(37,72,o),
(17,65,cs),
(-11,55,o),
(-11,51,o),
(-15,28,cs),
(-20,0,l),
(219,0,l),
(228,33,ls),
(229,37,o),
(231,43,o),
(231,48,cs),
(231,56,o),
(224,58,o),
(213,64,cs),
(195,73,o),
(189,77,o),
(189,88,cs),
(189,102,o),
(194,122,o),
(198,137,cs),
(241,322,l),
(404,93,ls),
(412,81,o),
(413,76,o),
(413,73,cs),
(413,62,o),
(404,60,o),
(401,59,cs),
(377,52,o),
(377,48,o),
(372,24,cs),
(367,0,l),
(630,0,l),
(636,21,ls),
(639,31,o),
(640,35,o),
(640,41,cs),
(640,53,o),
(633,57,o),
(624,60,c),
(575,83,o),
(570,90,o),
(530,145,cs),
(343,405,l),
(563,569,ls),
(624,614,o),
(672,653,o),
(696,662,cs),
(728,674,o),
(730,676,o),
(736,709,cs),
(740,730,l)
);
}
);
width = 668;
}
);
unicode = 75;
}
{
glyphname = L;
layers = (
{
hints = (
{
horizontal = 1;
place = (0,71);
type = Stem;
},
{
horizontal = 1;
place = (730,-20);
target = down;
type = TopGhost;
}
);
layerId = "F75699C9-9800-49D7-954F-48F025B39DD4";
shapes = (
{
closed = 1;
nodes = (
(529,174,ls),
(517,174,o),
(517,173,o),
(509,163,cs),
(459,96,o),
(428,70,o),
(303,70,cs),
(182,70,l),
(316,613,ls),
(325,650,o),
(334,658,o),
(354,665,cs),
(383,675,o),
(384,679,o),
(387,702,cs),
(391,730,l),
(151,730,l),
(142,697,l),
(142,693,o),
(140,687,o),
(140,682,cs),
(140,674,o),
(146,672,o),
(158,666,cs),
(176,657,o),
(181,653,o),
(181,642,cs),
(181,628,o),
(177,607,o),
(173,593,cs),
(55,117,ls),
(46,79,o),
(37,72,o),
(17,65,cs),
(-11,55,o),
(-11,51,o),
(-15,28,cs),
(-20,0,l),
(384,0,ls),
(430,0,o),
(482,-5,o),
(525,-10,c),
(571,174,l)
);
}
);
width = 583;
}
);
unicode = 76;
}
{
glyphname = M;
layers = (
{
hints = (
{
horizontal = 1;
place = (0,20);
type = Stem;
},
{
horizontal = 1;
place = (581,149);
type = Stem;
}
);
layerId = "F75699C9-9800-49D7-954F-48F025B39DD4";
shapes = (
{
closed = 1;
nodes = (
(712,730,l),
(413,230,l),
(411,230,l),
(363,730,l),
(151,730,l),
(142,697,l),
(142,693,o),
(140,687,o),
(140,682,cs),
(140,674,o),
(146,672,o),
(158,666,cs),
(176,657,o),
(181,653,o),
(181,642,cs),
(181,628,o),
(177,607,o),
(173,593,cs),
(55,117,ls),
(46,79,o),
(37,72,o),
(17,65,cs),
(-11,55,o),
(-11,51,o),
(-15,28,cs),
(-20,0,l),
(163,0,l),
(172,33,ls),
(173,37,o),
(175,43,o),
(175,48,cs),
(175,56,o),
(168,58,o),
(157,64,cs),
(139,73,o),
(133,77,o),
(133,88,cs),
(133,102,o),
(138,122,o),
(142,137,cs),
(250,578,l),
(254,578,l),
(312,0,l),
(364,0,l),
(695,572,l),
(699,570,l),
(584,117,ls),
(574,79,o),
(566,72,o),
(546,65,cs),
(518,55,o),
(518,51,o),
(514,28,cs),
(509,0,l),
(745,0,l),
(753,33,ls),
(754,37,o),
(756,43,o),
(756,48,cs),
(756,56,o),
(750,58,o),
(738,64,cs),
(720,73,o),
(714,77,o),
(714,88,cs),
(714,102,o),
(719,122,o),
(723,137,cs),
(841,613,ls),
(850,650,o),
(859,658,o),
(879,665,cs),
(907,675,o),
(907,679,o),
(911,702,cs),
(916,730,l)
);
}
);
width = 831;
}
);
unicode = 77;
}
{
glyphname = N;
layers = (
{
hints = (
{
horizontal = 1;
place = (0,20);
type = Stem;
},
{
horizontal = 1;
place = (730,-20);
target = down;
type = TopGhost;
}
);
layerId = "F75699C9-9800-49D7-954F-48F025B39DD4";
shapes = (
{
closed = 1;
nodes = (
(577,730,l),
(568,697,ls),
(567,693,o),
(565,687,o),
(565,682,cs),
(565,674,o),
(572,672,o),
(583,666,cs),
(601,657,o),
(607,653,o),
(607,642,cs),
(607,628,o),
(602,608,o),
(598,593,cs),
(514,252,l),
(328,730,l),
(151,730,l),
(142,697,l),
(142,693,o),
(140,687,o),
(140,682,cs),
(140,674,o),
(146,672,o),
(158,666,cs),
(176,657,o),
(181,653,o),
(181,642,cs),
(181,628,o),
(177,607,o),
(173,593,cs),
(55,117,ls),
(46,79,o),
(37,72,o),
(17,65,cs),
(-11,55,o),
(-11,51,o),
(-15,28,cs),
(-20,0,l),
(163,0,l),
(172,33,ls),
(173,37,o),
(175,43,o),
(175,48,cs),
(175,56,o),
(168,58,o),
(157,64,cs),
(139,73,o),
(133,77,o),
(133,88,cs),
(133,102,o),
(138,122,o),
(142,137,cs),
(248,564,l),
(468,0,l),
(533,0,l),
(685,613,ls),
(694,651,o),
(703,658,o),
(723,665,cs),
(751,675,o),
(751,679,o),
(755,702,cs),
(760,730,l)
);
}
);
width = 672;
}
);
unicode = 78;
}
{
glyphname = O;
layers = (
{
hints = (
{
horizontal = 1;
place = (-10,71);
type = Stem;
},
{
horizontal = 1;
place = (669,71);
type = Stem;
},
{
place = (53,135);
type = Stem;
},
{
place = (563,135);
type = Stem;
}
);
layerId = "F75699C9-9800-49D7-954F-48F025B39DD4";
shapes = (
{
closed = 1;
nodes = (
(698,644,o),
(548,740,o),
(428,740,cs),
(216,740,o),
(53,545,o),
(53,309,cs),
(53,82,o),
(206,-10,o),
(322,-10,cs),
(534,-10,o),
(698,181,o),
(698,421,cs)
);
},
{
closed = 1;
nodes = (
(563,354,o),
(509,60,o),
(329,60,cs),
(237,60,o),
(188,138,o),
(188,246,cs),
(188,377,o),
(243,670,o),
(423,670,cs),
(514,670,o),
(563,590,o),
(563,484,cs)
);
}
);
width = 686;
}
);
unicode = 79;
}
{
glyphname = P;
layers = (
{
hints = (
{
horizontal = 1;
place = (0,20);
type = Stem;
},
{
horizontal = 1;
place = (324,71);
type = Stem;
},
{
horizontal = 1;
place = (659,71);
type = Stem;
},
{
place = (498,135);
type = Stem;
}
);
layerId = "F75699C9-9800-49D7-954F-48F025B39DD4";
shapes = (
{
closed = 1;
nodes = (
(633,678,o),
(516,730,o),
(390,730,cs),
(151,730,l),
(142,697,l),
(142,693,o),
(140,687,o),
(140,682,cs),
(140,674,o),
(146,672,o),
(158,666,cs),
(176,657,o),
(181,653,o),
(181,642,cs),
(181,628,o),
(177,607,o),
(173,593,cs),
(55,117,ls),
(46,79,o),
(37,72,o),
(17,65,cs),
(-11,55,o),
(-11,51,o),
(-15,28,cs),
(-20,0,l),
(220,0,l),
(229,33,ls),
(230,37,o),
(232,43,o),
(232,48,cs),
(232,56,o),
(225,58,o),
(214,64,cs),
(196,73,o),
(190,77,o),
(190,88,cs),
(190,102,o),
(195,122,o),
(199,137,cs),
(245,324,l),
(344,324,ls),
(502,324,o),
(633,379,o),
(633,538,cs)
);
},
{
closed = 1;
nodes = (
(498,497,o),
(473,446,o),
(440,425,cs),
(401,400,o),
(358,394,o),
(316,394,cs),
(263,394,l),
(328,660,l),
(393,658,o),
(419,657,o),
(450,638,cs),
(481,620,o),
(498,586,o),
(498,547,cs)
);
}
);
width = 571;
}
);
unicode = 80;
}
{
glyphname = Q;
layers = (
{
hints = (
{
horizontal = 1;
place = (-174,87);
type = Stem;
},
{
horizontal = 1;
place = (669,71);
type = Stem;
},
{
place = (53,135);
type = Stem;
},
{
place = (563,135);
type = Stem;
}
);
layerId = "F75699C9-9800-49D7-954F-48F025B39DD4";
shapes = (
{
closed = 1;
nodes = (
(698,644,o),
(548,740,o),
(428,740,cs),
(216,740,o),
(53,545,o),
(53,309,cs),
(53,133,o),
(146,44,o),
(221,12,cs),
(256,-3,o),
(286,-35,o),
(369,-118,cs),
(403,-153,o),
(449,-174,o),
(501,-174,cs),
(556,-174,o),
(601,-150,o),
(614,-141,cs),
(621,-136,o),
(623,-131,o),
(623,-123,cs),
(623,-117,o),
(622,-113,o),
(621,-109,cs),
(614,-83,l),
(589,-89,o),
(574,-92,o),
(560,-92,cs),
(532,-92,o),
(514,-79,o),
(476,-51,cs),
(467,-45,o),
(413,-17,o),
(388,-6,c),
(388,-4,l),
(563,30,o),
(698,204,o),
(698,421,cs)
);
},
{
closed = 1;
nodes = (
(563,354,o),
(509,57,o),
(329,57,cs),
(237,57,o),
(188,138,o),
(188,246,cs),
(188,377,o),
(243,670,o),
(423,670,cs),
(514,670,o),
(563,590,o),
(563,484,cs)
);
}
);
width = 686;
}
);
unicode = 81;
}
{
glyphname = R;
layers = (
{
hints = (
{
horizontal = 1;
place = (0,20);
type = Stem;
},
{
horizontal = 1;
place = (344,71);
type = Stem;
},
{
horizontal = 1;
place = (659,71);
type = Stem;
},
{
place = (502,135);
type = Stem;
}
);
layerId = "F75699C9-9800-49D7-954F-48F025B39DD4";
shapes = (
{
closed = 1;
nodes = (
(637,705,o),
(495,730,o),
(362,730,cs),
(151,730,l),
(142,697,l),
(142,693,o),
(140,687,o),
(140,682,cs),
(140,674,o),
(146,672,o),
(158,666,cs),
(176,657,o),
(181,653,o),
(181,642,cs),
(181,628,o),
(177,607,o),
(173,593,cs),
(55,117,ls),
(46,79,o),
(37,72,o),
(17,65,cs),
(-11,55,o),
(-11,51,o),
(-15,28,cs),
(-20,0,l),
(220,0,l),
(229,33,ls),
(230,37,o),
(232,43,o),
(232,48,cs),
(232,56,o),
(225,58,o),
(214,64,cs),
(196,73,o),
(190,77,o),
(190,88,cs),
(190,102,o),
(195,122,o),
(199,137,cs),
(250,345,l),
(270,345,ls),
(291,345,o),
(305,326,o),
(314,305,cs),
(443,0,l),
(601,0,l),
(608,23,ls),
(611,33,o),
(613,42,o),
(613,43,c),
(613,49,o),
(613,54,o),
(595,58,cs),
(563,66,o),
(558,77,o),
(533,130,cs),
(463,280,ls),
(434,342,o),
(408,344,o),
(384,345,c),
(384,351,l),
(500,354,o),
(637,397,o),
(637,540,cs)
);
},
{
closed = 1;
nodes = (
(503,505,o),
(476,452,o),
(432,433,cs),
(390,415,o),
(364,415,o),
(320,415,cs),
(268,415,l),
(328,660,l),
(370,660,ls),
(391,660,o),
(503,663,o),
(503,556,cs)
);
}
);
width = 650;
}
);
unicode = 82;
}
{
glyphname = S;
layers = (
{
hints = (
{
horizontal = 1;
place = (-10,71);
type = Stem;
},
{
horizontal = 1;
place = (669,71);
type = Stem;
},
{
place = (106,112);
type = Stem;
},
{
place = (359,122);
type = Stem;
}
);
layerId = "F75699C9-9800-49D7-954F-48F025B39DD4";
shapes = (
{
closed = 1;
nodes = (
(506,714,l),
(482,700,l),
(445,716,o),
(405,740,o),
(338,740,cs),
(200,740,o),
(106,647,o),
(106,528,cs),
(106,432,o),
(151,381,o),
(215,338,cs),
(243,319,o),
(263,309,o),
(291,291,cs),
(326,267,o),
(364,234,o),
(364,177,cs),
(364,107,o),
(303,60,o),
(222,60,cs),
(170,60,o),
(119,84,o),
(88,121,cs),
(71,142,o),
(66,159,o),
(65,184,cs),
(64,193,o),
(59,196,o),
(45,196,cs),
(3,196,l),
(-47,0,l),
(9,0,l),
(29,23,o),
(36,31,o),
(51,31,cs),
(60,31,o),
(71,28,o),
(106,15,cs),
(142,2,o),
(169,-10,o),
(218,-10,cs),
(380,-10,o),
(481,102,o),
(481,242,cs),
(481,309,o),
(438,367,o),
(378,409,cs),
(357,423,o),
(314,452,o),
(283,472,cs),
(252,492,o),
(220,523,o),
(220,574,cs),
(220,629,o),
(271,670,o),
(335,670,cs),
(390,670,o),
(437,637,o),
(450,575,cs),
(455,549,o),
(456,544,o),
(467,544,cs),
(510,544,l),
(554,714,l)
);
}
);
width = 493;
}
);
unicode = 83;
}
{
glyphname = T;
layers = (
{
hints = (
{
horizontal = 1;
place = (0,20);
type = Stem;
},
{
horizontal = 1;
place = (652,78);
type = Stem;
}
);
layerId = "F75699C9-9800-49D7-954F-48F025B39DD4";
shapes = (
{
closed = 1;
nodes = (
(712,740,l),
(679,736,o),
(556,730,o),
(526,730,cs),
(312,730,ls),
(226,730,o),
(212,732,o),
(128,740,c),
(85,568,l),
(124,568,ls),
(138,568,o),
(144,572,o),
(152,582,cs),
(192,637,o),
(203,653,o),
(285,653,cs),
(329,653,l),
(196,117,ls),
(187,79,o),
(178,72,o),
(158,65,cs),
(129,55,o),
(128,51,o),
(125,28,cs),
(121,0,l),
(361,0,l),
(370,33,l),
(370,37,o),
(372,43,o),
(372,48,cs),
(372,56,o),
(366,58,o),
(354,64,cs),
(336,73,o),
(331,77,o),
(331,88,cs),
(331,102,o),
(335,122,o),
(339,137,cs),
(466,653,l),
(504,653,ls),
(565,653,o),
(595,648,o),
(611,584,cs),
(615,569,o),
(617,569,o),
(641,569,cs),
(669,569,l)
);
}
);
width = 597;
}
);
unicode = 84;
}
{
glyphname = U;
layers = (
{
hints = (
{
horizontal = 1;
place = (-11,87);
type = Stem;
},
{
horizontal = 1;
place = (730,-20);
target = down;
type = TopGhost;
},
{
place = (82,135);
type = Stem;
}
);
layerId = "F75699C9-9800-49D7-954F-48F025B39DD4";
shapes = (
{
closed = 1;
nodes = (
(607,730,l),
(598,697,l),
(598,693,o),
(596,687,o),
(596,682,cs),
(596,674,o),
(602,672,o),
(614,666,cs),
(632,657,o),
(637,653,o),
(637,642,cs),
(637,628,o),
(633,608,o),
(629,593,cs),
(541,234,ls),
(521,153,o),
(467,76,o),
(357,76,cs),
(257,76,o),
(217,142,o),
(217,199,cs),
(217,225,o),
(221,255,o),
(224,268,cs),
(310,613,ls),
(319,650,o),
(328,658,o),
(348,665,cs),
(376,675,o),
(376,679,o),
(380,702,cs),
(385,730,l),
(144,730,l),
(136,697,ls),
(135,693,o),
(133,687,o),
(133,682,cs),
(133,674,o),
(140,672,o),
(151,666,cs),
(169,657,o),
(175,653,o),
(175,642,cs),
(175,628,o),
(170,607,o),
(166,593,cs),
(92,296,ls),
(88,282,o),
(82,245,o),
(82,209,cs),
(82,57,o),
(182,-11,o),
(338,-11,cs),
(462,-11,o),
(576,39,o),
(623,230,cs),
(717,613,ls),
(726,651,o),
(735,658,o),
(755,665,cs),
(784,675,o),
(785,679,o),
(788,702,cs),
(792,730,l)
);
}
);
width = 699;
}
);
unicode = 85;
}
{
glyphname = V;
layers = (
{
hints = (
{
horizontal = 1;
place = (-3,20);
type = Stem;
},
{
horizontal = 1;
place = (730,-20);
target = down;
type = TopGhost;
}
);
layerId = "F75699C9-9800-49D7-954F-48F025B39DD4";
shapes = (
{
closed = 1;
nodes = (
(587,730,l),
(579,698,ls),
(578,696,o),
(576,689,o),
(576,683,cs),
(576,675,o),
(579,674,o),
(592,667,cs),
(612,656,o),
(614,650,o),
(614,642,cs),
(614,631,o),
(585,584,o),
(575,567,cs),
(358,205,l),
(295,622,l),
(295,625,o),
(294,640,o),
(294,646,cs),
(294,656,o),
(295,656,o),
(317,664,cs),
(345,674,o),
(346,683,o),
(351,709,cs),
(355,730,l),
(115,730,l),
(107,682,l),
(107,675,o),
(109,674,o),
(135,662,cs),
(156,653,o),
(157,648,o),
(163,610,cs),
(256,-3,l),
(310,-3,l),
(691,614,ls),
(700,629,o),
(717,656,o),
(735,662,cs),
(769,673,o),
(775,674,o),
(780,709,cs),
(783,730,l)
);
}
);
width = 657;
}
);
unicode = 86;
}
{
glyphname = W;
layers = (
{
hints = (
{
horizontal = 1;
place = (-3,20);
type = Stem;
},
{
horizontal = 1;
place = (730,-20);
target = down;
type = TopGhost;
},
{
place = (164,135);
type = Stem;
},
{
place = (544,112);
type = Stem;
}
);
layerId = "F75699C9-9800-49D7-954F-48F025B39DD4";
shapes = (
{
closed = 1;
nodes = (
(874,730,l),
(867,698,l),
(866,696,o),
(864,687,o),
(864,683,cs),
(864,675,o),
(867,674,o),
(881,667,cs),
(901,656,o),
(902,650,o),
(902,643,cs),
(902,630,o),
(897,620,o),
(888,605,cs),
(672,223,l),
(640,622,ls),
(637,660,o),
(647,664,o),
(690,683,c),
(702,730,l),
(473,730,l),
(465,698,ls),
(464,696,o),
(462,689,o),
(462,683,cs),
(462,675,o),
(466,673,o),
(484,665,cs),
(504,656,o),
(508,653,o),
(515,559,c),
(325,221,l),
(298,605,ls),
(297,614,o),
(296,639,o),
(296,653,cs),
(296,657,o),
(298,658,o),
(318,665,cs),
(345,674,o),
(344,681,o),
(351,709,cs),
(356,730,l),
(115,730,l),
(108,698,l),
(108,695,o),
(106,685,o),
(106,683,cs),
(106,672,o),
(113,670,o),
(135,665,cs),
(159,659,o),
(159,653,o),
(164,598,cs),
(218,-3,l),
(278,-3,l),
(528,437,l),
(566,-3,l),
(626,-3,l),
(978,607,ls),
(1003,651,o),
(1011,655,o),
(1064,683,c),
(1076,730,l)
);
}
);
width = 950;
}
);
unicode = 87;
}
{
glyphname = X;
layers = (
{
hints = (
{
horizontal = 1;
place = (0,20);
type = Stem;
},
{
horizontal = 1;
place = (730,-20);
target = down;
type = TopGhost;
}
);
layerId = "F75699C9-9800-49D7-954F-48F025B39DD4";
shapes = (
{
closed = 1;
nodes = (
(519,730,l),
(510,698,ls),
(509,696,o),
(507,688,o),
(507,683,cs),
(507,673,o),
(518,668,o),
(525,666,cs),
(538,662,o),
(541,656,o),
(541,649,cs),
(541,632,o),
(527,618,o),
(522,614,c),
(385,461,l),
(324,626,ls),
(323,629,o),
(320,638,o),
(320,644,cs),
(320,658,o),
(328,661,o),
(333,662,cs),
(368,672,o),
(369,680,o),
(375,709,cs),
(379,730,l),
(137,730,l),
(128,698,ls),
(127,696,o),
(125,688,o),
(125,683,cs),
(125,673,o),
(135,669,o),
(142,667,cs),
(166,660,o),
(170,650,o),
(185,614,cs),
(286,373,l),
(24,97,ls),
(-3,69,o),
(-19,63,o),
(-45,53,cs),
(-52,51,o),
(-55,38,o),
(-57,24,cs),
(-61,0,l),
(154,0,l),
(159,22,ls),
(161,30,o),
(162,37,o),
(162,43,cs),
(162,46,o),
(162,53,o),
(152,58,cs),
(135,67,o),
(130,71,o),
(130,85,cs),
(130,104,o),
(142,114,o),
(147,120,cs),
(315,301,l),
(384,128,ls),
(388,118,o),
(392,105,o),
(392,92,cs),
(392,66,o),
(382,63,o),
(370,60,cs),
(347,54,o),
(347,48,o),
(342,24,cs),
(337,0,l),
(581,0,l),
(588,22,ls),
(590,29,o),
(592,36,o),
(592,42,cs),
(592,53,o),
(588,55,o),
(568,65,cs),
(544,77,o),
(531,103,o),
(524,121,cs),
(419,389,l),
(641,628,ls),
(669,658,o),
(677,661,o),
(729,683,c),
(741,730,l)
);
}
);
width = 630;
}
);
unicode = 88;
}
{
glyphname = Y;
layers = (
{
hints = (
{
horizontal = 1;
place = (0,20);
type = Stem;
},
{
horizontal = 1;
place = (730,-20);
target = down;
type = TopGhost;
}
);
layerId = "F75699C9-9800-49D7-954F-48F025B39DD4";
shapes = (
{
closed = 1;
nodes = (
(536,730,l),
(529,698,l),
(529,695,o),
(527,685,o),
(527,683,cs),
(527,673,o),
(536,669,o),
(544,666,cs),
(549,664,o),
(561,659,o),
(561,650,cs),
(561,640,o),
(554,629,o),
(544,617,cs),
(376,415,l),
(308,615,ls),
(302,632,o),
(300,634,o),
(300,644,cs),
(300,658,o),
(303,659,o),
(326,667,cs),
(347,675,o),
(349,688,o),
(353,709,cs),
(357,730,l),
(113,730,l),
(105,698,ls),
(104,696,o),
(103,688,o),
(103,683,cs),
(103,671,o),
(117,666,o),
(124,664,cs),
(155,655,o),
(158,650,o),
(174,603,cs),
(263,341,l),
(207,117,ls),
(198,79,o),
(189,72,o),
(169,65,cs),
(141,55,o),
(141,51,o),
(137,28,cs),
(132,0,l),
(372,0,l),
(381,33,ls),
(382,37,o),
(384,43,o),
(384,48,cs),
(384,56,o),
(377,58,o),
(366,64,cs),
(348,73,o),
(342,77,o),
(342,88,cs),
(342,102,o),
(347,122,o),
(351,137,cs),
(396,324,l),
(655,623,ls),
(671,642,o),
(677,646,o),
(736,683,c),
(749,730,l)
);
}
);
width = 621;
}
);
unicode = 89;
}
{
glyphname = Z;
layers = (
{
hints = (
{
horizontal = 1;
place = (0,71);
type = Stem;
},
{
horizontal = 1;
place = (652,78);
type = Stem;
}
);
layerId = "F75699C9-9800-49D7-954F-48F025B39DD4";
shapes = (
{
closed = 1;
nodes = (
(148,730,l),
(104,568,l),
(147,568,ls),
(155,568,o),
(159,569,o),
(167,587,cs),
(182,621,o),
(223,653,o),
(302,653,cs),
(472,653,l),
(-9,95,ls),
(-27,74,o),
(-38,53,o),
(-47,0,c),
(510,0,l),
(557,178,l),
(521,178,ls),
(508,178,o),
(501,178,o),
(493,167,cs),
(462,121,o),
(426,73,o),
(312,73,cs),
(139,73,l),
(650,666,l),
(664,730,l)
);
}
);
width = 571;
}
);
unicode = 90;
}
{
glyphname = bracketleft;
layers = (
{
hints = (
{
horizontal = 1;
place = (-188,47);
type = Stem;
},
{
horizontal = 1;
place = (683,47);
type = Stem;
}
);
layerId = "F75699C9-9800-49D7-954F-48F025B39DD4";
shapes = (
{
closed = 1;
nodes = (
(197,730,l),
(-32,-188,l),
(196,-188,l),
(207,-139,l),
(104,-139,l),
(309,681,l),
(409,681,l),
(421,730,l)
);
}
);
width = 329;
}
);
unicode = 91;
}
{
glyphname = backslash;
layers = (
{
hints = (
{
horizontal = 1;
place = (730,-20);
target = down;
type = TopGhost;
}
);
layerId = "F75699C9-9800-49D7-954F-48F025B39DD4";
shapes = (
{
closed = 1;
nodes = (
(156,730,l),
(79,730,l),
(307,-190,l),
(383,-190,l)
);
}
);
width = 376;
}
);
unicode = 92;
}
{
glyphname = bracketright;
layers = (
{
hints = (
{
horizontal = 1;
place = (-188,47);
type = Stem;
},
{
horizontal = 1;
place = (683,47);
type = Stem;
}
);
layerId = "F75699C9-9800-49D7-954F-48F025B39DD4";
shapes = (
{
closed = 1;
nodes = (
(151,730,l),
(140,681,l),
(242,681,l),
(38,-139,l),
(-63,-139,l),
(-74,-188,l),
(150,-188,l),
(379,730,l)
);
}
);
width = 329;
}
);
unicode = 93;
}
{
glyphname = asciicircum;
layers = (
{
hints = (
{
horizontal = 1;
place = (730,-20);
target = down;
type = TopGhost;
}
);
layerId = "F75699C9-9800-49D7-954F-48F025B39DD4";
shapes = (
{
closed = 1;
nodes = (
(442,730,l),
(368,730,l),
(132,314,l),
(227,314,l),
(405,645,l),
(583,314,l),
(678,314,l)
);
}
);
width = 740;
}
);
unicode = 94;
}
{
glyphname = underscore;
layers = (
{
hints = (
{
horizontal = 1;
place = (-103,53);
type = Stem;
}
);
layerId = "F75699C9-9800-49D7-954F-48F025B39DD4";
shapes = (
{
closed = 1;
nodes = (
(-59,-50,l),
(-73,-103,l),
(408,-103,l),
(422,-50,l)
);
}
);
width = 475;
}
);
unicode = 95;
}
{
glyphname = a;
layers = (
{
hints = (
{
horizontal = 1;
place = (-10,94);
type = Stem;
},
{
horizontal = 1;
place = (369,61);
type = Stem;
},
{
place = (13,122);
type = Stem;
}
);
layerId = "F75699C9-9800-49D7-954F-48F025B39DD4";
shapes = (
{
closed = 1;
nodes = (
(474,424,o),
(474,431,o),
(465,431,cs),
(458,431,o),
(451,425,o),
(447,422,cs),
(407,390,o),
(401,388,o),
(389,388,cs),
(377,388,o),
(367,396,o),
(352,406,cs),
(335,418,o),
(311,430,o),
(268,430,cs),
(136,430,o),
(13,304,o),
(13,149,cs),
(13,56,o),
(60,-10,o),
(142,-10,cs),
(200,-10,o),
(247,28,o),
(275,59,c),
(282,33,o),
(296,-10,o),
(353,-10,cs),
(397,-10,o),
(454,16,o),
(454,34,cs),
(454,38,o),
(453,43,o),
(451,49,cs),
(443,72,l),
(425,65,o),
(423,64,o),
(412,64,cs),
(406,64,o),
(396,72,o),
(396,82,cs),
(396,92,o),
(400,108,o),
(404,125,cs),
(467,388,ls),
(470,399,o),
(474,412,o),
(474,417,cs)
);
},
{
closed = 1;
nodes = (
(330,308,o),
(327,296,o),
(326,292,cs),
(288,131,l),
(265,110,o),
(236,84,o),
(195,84,cs),
(158,84,o),
(137,118,o),
(137,165,cs),
(137,255,o),
(191,368,o),
(273,368,cs),
(312,368,o),
(330,336,o),
(330,316,cs)
);
}
);
width = 497;
}
);
unicode = 97;
}
{
glyphname = b;
layers = (
{
hints = (
{
horizontal = 1;
place = (-10,61);
type = Stem;
},
{
horizontal = 1;
place = (336,94);
type = Stem;
},
{
horizontal = 1;
place = (730,-20);
target = down;
type = TopGhost;
},
{
place = (31,112);
type = Stem;
},
{
place = (337,122);
type = Stem;
}
);
layerId = "F75699C9-9800-49D7-954F-48F025B39DD4";
shapes = (
{
closed = 1;
nodes = (
(459,360,o),
(412,430,o),
(330,430,cs),
(268,430,o),
(219,383,o),
(201,366,c),
(291,730,l),
(124,730,l),
(116,700,ls),
(115,696,o),
(113,691,o),
(113,688,cs),
(113,680,o),
(123,676,o),
(135,671,cs),
(140,669,o),
(148,663,o),
(148,656,cs),
(148,644,o),
(145,625,o),
(141,606,cs),
(42,189,ls),
(36,163,o),
(31,139,o),
(31,115,cs),
(31,68,o),
(61,-10,o),
(191,-10,cs),
(345,-10,o),
(459,116,o),
(459,271,cs)
);
},
{
closed = 1;
nodes = (
(335,165,o),
(287,51,o),
(202,51,cs),
(163,51,o),
(145,73,o),
(145,101,cs),
(145,109,o),
(146,123,o),
(147,127,cs),
(184,289,l),
(204,310,o),
(237,336,o),
(277,336,cs),
(314,336,o),
(335,302,o),
(335,255,cs)
);
}
);
width = 472;
}
);
unicode = 98;
}
{
glyphname = c;
layers = (
{
hints = (
{
horizontal = 1;
place = (-10,78);
type = Stem;
},
{
horizontal = 1;
place = (369,61);
type = Stem;
},
{
place = (17,122);
type = Stem;
},
{
place = (285,122);
type = Stem;
}
);
layerId = "F75699C9-9800-49D7-954F-48F025B39DD4";
shapes = (
{
closed = 1;
nodes = (
(407,374,o),
(365,430,o),
(270,430,cs),
(118,430,o),
(17,296,o),
(17,181,cs),
(17,62,o),
(97,-10,o),
(199,-10,cs),
(280,-10,o),
(366,33,o),
(366,62,cs),
(366,67,o),
(363,74,o),
(358,80,cs),
(336,110,l),
(301,82,o),
(270,67,o),
(228,67,cs),
(176,67,o),
(141,111,o),
(141,186,cs),
(141,261,o),
(178,367,o),
(255,367,cs),
(273,367,o),
(283,362,o),
(294,352,c),
(292,341,o),
(290,332,o),
(290,325,cs),
(290,288,o),
(320,265,o),
(349,265,cs),
(382,265,o),
(407,294,o),
(407,331,cs)
);
}
);
width = 398;
}
);
unicode = 99;
}
{
glyphname = d;
layers = (
{
hints = (
{
horizontal = 1;
place = (-10,94);
type = Stem;
},
{
horizontal = 1;
place = (369,61);
type = Stem;
},
{
horizontal = 1;
place = (730,-20);
target = down;
type = TopGhost;
},
{
place = (13,122);
type = Stem;
}
);
layerId = "F75699C9-9800-49D7-954F-48F025B39DD4";
shapes = (
{
closed = 1;
nodes = (
(382,730,l),
(373,700,ls),
(372,696,o),
(370,691,o),
(370,688,cs),
(370,680,o),
(380,676,o),
(392,671,cs),
(397,669,o),
(407,663,o),
(407,656,cs),
(407,644,o),
(404,625,o),
(399,606,c),
(351,402,l),
(328,418,o),
(306,430,o),
(268,430,cs),
(136,430,o),
(13,304,o),
(13,149,cs),
(13,60,o),
(60,-10,o),
(142,-10,cs),
(200,-10,o),
(255,37,o),
(275,59,c),
(281,31,o),
(296,-10,o),
(353,-10,cs),
(397,-10,o),
(455,16,o),
(455,34,cs),
(455,38,o),
(454,43,o),
(452,49,cs),
(444,72,l),
(426,65,o),
(423,64,o),
(412,64,cs),
(406,64,o),
(396,72,o),
(396,82,cs),
(396,91,o),
(400,108,o),
(404,125,cs),
(549,730,l)
);
},
{
closed = 1;
nodes = (
(329,309,o),
(326,297,o),
(325,293,cs),
(287,131,l),
(264,110,o),
(236,84,o),
(195,84,cs),
(158,84,o),
(137,118,o),
(137,165,cs),
(137,255,o),
(191,369,o),
(273,369,cs),
(312,369,o),
(329,337,o),
(329,317,cs)
);
}
);
width = 497;
}
);
unicode = 100;
}
{
glyphname = e;
layers = (
{
hints = (
{
horizontal = 1;
place = (-10,71);
type = Stem;
},
{
horizontal = 1;
place = (185,61);
type = Stem;
},
{
place = (299,112);
type = Stem;
}
);
layerId = "F75699C9-9800-49D7-954F-48F025B39DD4";
shapes = (
{
closed = 1;
nodes = (
(411,388,o),
(354,430,o),
(278,430,cs),
(137,430,o),
(17,314,o),
(17,176,cs),
(17,68,o),
(77,-10,o),
(190,-10,cs),
(309,-10,o),
(385,67,o),
(385,88,cs),
(385,96,o),
(380,99,o),
(372,108,cs),
(353,130,l),
(306,88,o),
(267,66,o),
(225,66,cs),
(179,66,o),
(135,98,o),
(135,167,cs),
(135,186,l),
(184,186,ls),
(243,186,o),
(411,195,o),
(411,325,cs)
);
},
{
closed = 1;
nodes = (
(300,296,o),
(283,279,o),
(269,270,cs),
(249,256,o),
(227,247,o),
(145,246,c),
(164,321,o),
(210,369,o),
(257,369,cs),
(284,369,o),
(300,352,o),
(300,327,cs)
);
}
);
width = 413;
}
);
unicode = 101;
}
{
glyphname = f;
layers = (
{
hints = (
{
horizontal = 1;
place = (0,20);
type = Stem;
},
{
horizontal = 1;
place = (354,71);
type = Stem;
},
{
horizontal = 1;
place = (588,142);
type = Stem;
},
{
place = (331,112);
type = Stem;
}
);
layerId = "F75699C9-9800-49D7-954F-48F025B39DD4";
shapes = (
{
closed = 1;
nodes = (
(443,699,o),
(405,730,o),
(348,730,cs),
(204,730,o),
(154,562,o),
(146,528,cs),
(129,457,ls),
(122,427,o),
(110,424,o),
(95,421,cs),
(69,416,o),
(66,412,o),
(61,392,cs),
(52,355,l),
(102,355,l),
(22,0,l),
(142,0,l),
(221,355,l),
(327,355,l),
(344,425,l),
(237,425,l),
(271,573,ls),
(286,639,o),
(298,657,o),
(328,666,c),
(328,653,o),
(328,643,o),
(329,637,cs),
(332,609,o),
(359,590,o),
(384,590,cs),
(418,590,o),
(443,621,o),
(443,653,cs)
);
}
);
width = 294;
}
);
unicode = 102;
}
{
glyphname = g;
layers = (
{
hints = (
{
horizontal = 1;
place = (-198,61);
type = Stem;
},
{
horizontal = 1;
place = (-21,94);
type = Stem;
},
{
horizontal = 1;
place = (107,61);
type = Stem;
},
{
horizontal = 1;
place = (341,87);
type = Stem;
},
{
place = (36,112);
type = Stem;
},
{
place = (266,105);
type = Stem;
}
);
layerId = "F75699C9-9800-49D7-954F-48F025B39DD4";
shapes = (
{
closed = 1;
nodes = (
(478,413,o),
(451,428,o),
(425,428,cs),
(395,428,o),
(370,406,o),
(351,391,c),
(324,415,o),
(285,430,o),
(240,430,cs),
(103,430,o),
(36,333,o),
(36,253,cs),
(36,206,o),
(58,171,o),
(89,147,c),
(-17,3,ls),
(-20,-2,o),
(-24,-7,o),
(-24,-12,cs),
(-24,-23,o),
(-16,-30,o),
(-7,-30,cs),
(13,-30,o),
(117,-25,o),
(139,-25,cs),
(231,-25,o),
(265,-38,o),
(265,-75,cs),
(265,-129,o),
(180,-136,o),
(156,-136,cs),
(126,-136,o),
(106,-133,o),
(85,-128,c),
(86,-126,o),
(87,-117,o),
(87,-112,cs),
(87,-93,o),
(75,-66,o),
(39,-66,cs),
(6,-66,o),
(-10,-95,o),
(-10,-118,cs),
(-10,-187,o),
(86,-198,o),
(149,-198,cs),
(255,-198,o),
(371,-157,o),
(371,-52,cs),
(371,28,o),
(307,73,o),
(170,73,cs),
(106,73,l),
(106,73,o),
(142,121,o),
(141,121,c),
(161,114,o),
(183,111,o),
(204,111,cs),
(308,111,o),
(398,192,o),
(398,286,cs),
(398,311,o),
(392,335,o),
(381,355,c),
(386,356,o),
(392,357,o),
(395,357,cs),
(400,357,o),
(406,356,o),
(409,353,c),
(422,345,o),
(427,341,o),
(439,341,cs),
(465,341,o),
(478,362,o),
(478,383,cs)
);
},
{
closed = 1;
nodes = (
(292,224,o),
(252,168,o),
(205,168,cs),
(167,168,o),
(144,200,o),
(144,238,cs),
(144,298,o),
(174,368,o),
(232,368,cs),
(269,368,o),
(292,343,o),
(292,291,cs)
);
}
);
width = 440;
}
);
unicode = 103;
}
{
glyphname = h;
layers = (
{
hints = (
{
horizontal = 1;
place = (-10,71);
type = Stem;
},
{
horizontal = 1;
place = (343,87);
type = Stem;
},
{
horizontal = 1;
place = (730,-20);
target = down;
type = TopGhost;
},
{
place = (326,122);
type = Stem;
}
);
layerId = "F75699C9-9800-49D7-954F-48F025B39DD4";
shapes = (
{
closed = 1;
nodes = (
(457,38,o),
(456,43,o),
(454,49,cs),
(446,72,l),
(427,65,o),
(425,64,o),
(414,64,cs),
(408,64,o),
(398,72,o),
(398,82,cs),
(398,91,o),
(402,110,o),
(406,125,cs),
(433,230,ls),
(439,252,o),
(448,282,o),
(448,322,cs),
(448,381,o),
(408,430,o),
(342,430,cs),
(283,430,o),
(242,395,o),
(214,374,c),
(301,730,l),
(135,730,l),
(126,700,ls),
(125,696,o),
(123,691,o),
(123,688,cs),
(123,680,o),
(133,676,o),
(145,671,cs),
(150,669,o),
(159,663,o),
(159,656,cs),
(159,644,o),
(156,625,o),
(151,606,cs),
(8,0,l),
(126,0,l),
(198,300,l),
(215,315,o),
(247,343,o),
(285,343,cs),
(307,343,o),
(326,327,o),
(326,305,cs),
(326,295,o),
(324,283,o),
(322,276,cs),
(284,123,ls),
(276,90,o),
(275,71,o),
(275,60,cs),
(275,25,o),
(298,-10,o),
(355,-10,cs),
(399,-10,o),
(457,16,o),
(457,34,cs)
);
}
);
width = 494;
}
);
unicode = 104;
}
{
glyphname = i;
layers = (
{
hints = (
{
horizontal = 1;
place = (-10,71);
type = Stem;
},
{
horizontal = 1;
place = (554,149);
type = Stem;
},
{
place = (32,122);
type = Stem;
}
);
layerId = "F75699C9-9800-49D7-954F-48F025B39DD4";
shapes = (
{
closed = 1;
nodes = (
(284,670,o),
(253,703,o),
(214,703,cs),
(176,703,o),
(144,670,o),
(144,630,cs),
(144,589,o),
(176,556,o),
(214,556,cs),
(253,556,o),
(284,589,o),
(284,630,cs)
);
},
{
closed = 1;
nodes = (
(231,425,o),
(227,430,o),
(218,430,cs),
(212,430,o),
(209,428,o),
(190,421,cs),
(165,412,o),
(116,400,o),
(59,392,c),
(53,374,ls),
(52,370,o),
(49,360,o),
(49,354,cs),
(49,345,o),
(56,341,o),
(60,340,cs),
(78,333,o),
(87,331,o),
(87,315,cs),
(87,309,o),
(84,286,o),
(82,278,cs),
(42,123,ls),
(34,91,o),
(32,71,o),
(32,60,cs),
(32,25,o),
(54,-10,o),
(111,-10,cs),
(155,-10,o),
(213,16,o),
(213,34,cs),
(213,38,o),
(212,43,o),
(210,49,cs),
(201,72,l),
(183,65,o),
(180,64,o),
(170,64,cs),
(163,64,o),
(154,72,o),
(154,82,cs),
(154,91,o),
(157,110,o),
(161,125,cs),
(221,373,ls),
(226,393,o),
(231,410,o),
(231,416,cs)
);
}
);
width = 256;
}
);
unicode = 105;
}
{
glyphname = j;
layers = (
{
hints = (
{
horizontal = 1;
place = (-194,127);
type = Stem;
},
{
horizontal = 1;
place = (554,149);
type = Stem;
},
{
place = (-139,105);
type = Stem;
},
{
place = (145,135);
type = Stem;
}
);
layerId = "F75699C9-9800-49D7-954F-48F025B39DD4";
shapes = (
{
closed = 1;
nodes = (
(280,670,o),
(249,703,o),
(210,703,cs),
(172,703,o),
(141,670,o),
(141,630,cs),
(141,589,o),
(172,556,o),
(210,556,cs),
(249,556,o),
(280,589,o),
(280,630,cs)
);
},
{
closed = 1;
nodes = (
(235,425,o),
(231,430,o),
(221,430,cs),
(216,430,o),
(212,427,o),
(193,420,cs),
(168,411,o),
(115,400,o),
(58,392,c),
(52,374,ls),
(51,370,o),
(48,360,o),
(48,354,cs),
(48,345,o),
(55,341,o),
(59,340,cs),
(77,333,o),
(88,331,o),
(88,315,cs),
(88,309,o),
(86,289,o),
(83,277,cs),
(11,-57,ls),
(4,-91,o),
(-3,-116,o),
(-9,-125,cs),
(-11,-129,o),
(-19,-132,o),
(-25,-132,cs),
(-35,-132,l),
(-39,-65,o),
(-83,-64,o),
(-87,-64,cs),
(-115,-64,o),
(-139,-90,o),
(-139,-122,cs),
(-139,-156,o),
(-112,-194,o),
(-53,-194,cs),
(11,-194,o),
(62,-146,o),
(85,-115,cs),
(126,-62,o),
(139,-20,o),
(153,42,cs),
(226,373,ls),
(230,393,o),
(235,410,o),
(235,416,cs)
);
}
);
width = 245;
}
);
unicode = 106;
}
{
glyphname = k;
layers = (
{
hints = (
{
horizontal = 1;
place = (-10,71);
type = Stem;
},
{
horizontal = 1;
place = (352,78);
type = Stem;
},
{
horizontal = 1;
place = (730,-20);
target = down;
type = TopGhost;
},
{
place = (343,122);
type = Stem;
}
);
layerId = "F75699C9-9800-49D7-954F-48F025B39DD4";
shapes = (
{
closed = 1;
nodes = (
(465,391,o),
(425,430,o),
(357,430,cs),
(302,430,o),
(256,405,o),
(216,383,c),
(301,730,l),
(135,730,l),
(126,700,ls),
(125,696,o),
(123,691,o),
(123,688,cs),
(123,680,o),
(133,676,o),
(145,671,cs),
(150,669,o),
(159,663,o),
(159,656,cs),
(159,644,o),
(156,625,o),
(151,606,cs),
(8,0,l),
(126,0,l),
(157,138,l),
(237,153,l),
(263,29,o),
(295,-10,o),
(358,-10,cs),
(397,-10,o),
(463,13,o),
(463,36,cs),
(463,41,o),
(460,52,o),
(458,59,cs),
(454,75,l),
(446,71,o),
(428,65,o),
(420,65,cs),
(396,65,o),
(380,75,o),
(367,121,cs),
(346,194,l),
(382,212,o),
(465,253,o),
(465,338,cs)
);
},
{
closed = 1;
nodes = (
(344,242,o),
(237,216,o),
(173,206,c),
(198,306,l),
(248,349,o),
(286,352,o),
(300,352,cs),
(326,352,o),
(344,331,o),
(344,309,cs)
);
}
);
width = 488;
}
);
unicode = 107;
}
{
glyphname = l;
layers = (
{
hints = (
{
horizontal = 1;
place = (-10,71);
type = Stem;
},
{
horizontal = 1;
place = (730,-20);
target = down;
type = TopGhost;
},
{
place = (23,122);
type = Stem;
}
);
layerId = "F75699C9-9800-49D7-954F-48F025B39DD4";
shapes = (
{
closed = 1;
nodes = (
(130,730,l),
(122,700,ls),
(121,696,o),
(119,691,o),
(119,688,cs),
(119,680,o),
(128,676,o),
(141,671,cs),
(145,669,o),
(154,663,o),
(154,656,cs),
(154,644,o),
(151,625,o),
(146,606,cs),
(31,123,ls),
(23,91,o),
(23,71,o),
(23,60,cs),
(23,25,o),
(45,-10,o),
(102,-10,cs),
(145,-10,o),
(205,16,o),
(205,34,cs),
(205,38,o),
(204,43,o),
(202,49,cs),
(194,72,l),
(176,65,o),
(173,64,o),
(162,64,cs),
(155,64,o),
(144,72,o),
(144,82,cs),
(144,95,o),
(148,111,o),
(151,125,cs),
(296,730,l)
);
}
);
width = 243;
}
);
unicode = 108;
}
{
glyphname = m;
layers = (
{
hints = (
{
horizontal = 1;
place = (-10,71);
type = Stem;
},
{
horizontal = 1;
place = (343,87);
type = Stem;
},
{
place = (534,122);
type = Stem;
}
);
layerId = "F75699C9-9800-49D7-954F-48F025B39DD4";
shapes = (
{
closed = 1;
nodes = (
(715,38,o),
(714,43,o),
(712,49,cs),
(704,72,l),
(686,65,o),
(683,64,o),
(673,64,cs),
(666,64,o),
(656,72,o),
(656,82,cs),
(656,91,o),
(660,110,o),
(664,125,cs),
(692,230,ls),
(698,252,o),
(707,282,o),
(707,322,cs),
(707,381,o),
(668,430,o),
(602,430,cs),
(543,430,o),
(503,401,o),
(454,360,c),
(440,398,o),
(402,430,o),
(354,430,cs),
(295,430,o),
(253,395,o),
(221,371,c),
(226,391,o),
(231,410,o),
(231,416,cs),
(231,425,o),
(227,430,o),
(218,430,cs),
(212,430,o),
(210,428,o),
(191,421,cs),
(166,412,o),
(121,400,o),
(65,392,c),
(59,374,ls),
(58,370,o),
(55,360,o),
(55,354,cs),
(55,345,o),
(62,341,o),
(66,340,cs),
(84,333,o),
(93,332,o),
(93,316,cs),
(93,310,o),
(88,286,o),
(86,278,cs),
(20,0,l),
(139,0,l),
(210,300,l),
(227,315,o),
(258,343,o),
(296,343,cs),
(318,343,o),
(336,326,o),
(336,304,cs),
(336,294,o),
(334,282,o),
(332,275,cs),
(268,0,l),
(389,0,l),
(460,300,l),
(477,315,o),
(507,343,o),
(545,343,cs),
(567,343,o),
(584,327,o),
(584,305,cs),
(584,295,o),
(582,283,o),
(580,276,cs),
(542,123,ls),
(534,90,o),
(533,71,o),
(533,60,cs),
(533,25,o),
(557,-10,o),
(614,-10,cs),
(657,-10,o),
(715,16,o),
(715,34,cs)
);
}
);
width = 752;
}
);
unicode = 109;
}
{
glyphname = n;
layers = (
{
hints = (
{
horizontal = 1;
place = (-10,71);
type = Stem;
},
{
horizontal = 1;
place = (343,87);
type = Stem;
},
{
place = (338,122);
type = Stem;
}
);
layerId = "F75699C9-9800-49D7-954F-48F025B39DD4";
shapes = (
{
closed = 1;
nodes = (
(469,38,o),
(468,43,o),
(466,49,cs),
(458,72,l),
(440,65,o),
(437,64,o),
(427,64,cs),
(420,64,o),
(410,72,o),
(410,82,cs),
(410,91,o),
(414,110,o),
(418,125,cs),
(446,230,ls),
(452,252,o),
(461,282,o),
(461,322,cs),
(461,381,o),
(420,430,o),
(354,430,cs),
(295,430,o),
(253,395,o),
(221,371,c),
(226,391,o),
(231,410,o),
(231,416,cs),
(231,425,o),
(227,430,o),
(218,430,cs),
(212,430,o),
(210,428,o),
(191,421,cs),
(166,412,o),
(122,401,o),
(65,392,c),
(59,374,ls),
(58,370,o),
(55,360,o),
(55,354,cs),
(55,345,o),
(62,341,o),
(66,340,cs),
(84,333,o),
(93,332,o),
(93,316,cs),
(93,310,o),
(88,286,o),
(86,278,cs),
(20,0,l),
(139,0,l),
(210,300,l),
(227,315,o),
(259,343,o),
(297,343,cs),
(319,343,o),
(338,327,o),
(338,305,cs),
(338,295,o),
(336,283,o),
(334,276,cs),
(296,123,ls),
(288,90,o),
(287,71,o),
(287,60,cs),
(287,25,o),
(311,-10,o),
(368,-10,cs),
(411,-10,o),
(469,16,o),
(469,34,cs)
);
}
);
width = 506;
}
);
unicode = 110;
}
{
glyphname = o;
layers = (
{
hints = (
{
horizontal = 1;
place = (-10,61);
type = Stem;
},
{
horizontal = 1;
place = (369,61);
type = Stem;
},
{
place = (17,122);
type = Stem;
},
{
place = (323,122);
type = Stem;
}
);
layerId = "F75699C9-9800-49D7-954F-48F025B39DD4";
shapes = (
{
closed = 1;
nodes = (
(445,363,o),
(354,430,o),
(260,430,cs),
(108,430,o),
(17,305,o),
(17,175,cs),
(17,95,o),
(71,-10,o),
(199,-10,cs),
(340,-10,o),
(445,105,o),
(445,240,cs)
);
},
{
closed = 1;
nodes = (
(323,223,o),
(303,159,o),
(287,121,cs),
(266,73,o),
(229,51,o),
(204,51,cs),
(191,51,o),
(139,58,o),
(139,131,cs),
(139,192,o),
(152,242,o),
(175,298,cs),
(197,352,o),
(230,369,o),
(259,369,cs),
(295,369,o),
(323,339,o),
(323,289,cs)
);
}
);
width = 462;
}
);
unicode = 111;
}
{
glyphname = p;
layers = (
{
hints = (
{
horizontal = 1;
place = (-10,61);
type = Stem;
},
{
horizontal = 1;
place = (336,94);
type = Stem;
},
{
place = (360,122);
type = Stem;
}
);
layerId = "F75699C9-9800-49D7-954F-48F025B39DD4";
shapes = (
{
closed = 1;
nodes = (
(482,360,o),
(435,430,o),
(352,430,cs),
(291,430,o),
(237,381,o),
(219,363,c),
(224,384,o),
(231,410,o),
(231,416,cs),
(231,425,o),
(227,430,o),
(218,430,cs),
(212,430,o),
(210,428,o),
(191,421,cs),
(166,412,o),
(122,401,o),
(65,392,c),
(59,374,ls),
(58,370,o),
(55,360,o),
(55,354,cs),
(55,345,o),
(62,341,o),
(66,340,cs),
(84,333,o),
(93,332,o),
(93,316,cs),
(93,310,o),
(88,286,o),
(86,278,cs),
(-25,-190,l),
(95,-190,l),
(144,18,l),
(167,2,o),
(190,-10,o),
(228,-10,cs),
(363,-10,o),
(482,116,o),
(482,271,cs)
);
},
{
closed = 1;
nodes = (
(358,165,o),
(309,51,o),
(224,51,cs),
(185,51,o),
(166,83,o),
(166,103,cs),
(166,111,o),
(169,123,o),
(170,127,cs),
(208,289,l),
(228,310,o),
(259,336,o),
(300,336,cs),
(337,336,o),
(358,302,o),
(358,255,cs)
);
}
);
width = 495;
}
);
unicode = 112;
}
{
glyphname = r;
layers = (
{
hints = (
{
horizontal = 1;
place = (0,20);
type = Stem;
},
{
horizontal = 1;
place = (296,134);
type = Stem;
},
{
place = (87,94);
type = Stem;
}
);
layerId = "F75699C9-9800-49D7-954F-48F025B39DD4";
shapes = (
{
closed = 1;
nodes = (
(364,398,o),
(345,430,o),
(300,430,cs),
(241,430,o),
(208,370,o),
(183,323,c),
(181,323,l),
(181,352,ls),
(181,370,o),
(180,430,o),
(161,430,cs),
(159,430,o),
(137,420,o),
(131,418,cs),
(109,410,o),
(84,402,o),
(37,391,c),
(37,366,ls),
(37,349,o),
(42,346,o),
(52,345,c),
(78,340,o),
(87,338,o),
(87,307,cs),
(87,298,o),
(86,267,o),
(77,229,cs),
(24,0,l),
(142,0,l),
(188,198,ls),
(213,306,o),
(235,320,o),
(252,332,c),
(260,312,o),
(273,297,o),
(302,297,cs),
(346,297,o),
(364,334,o),
(364,364,cs)
);
}
);
width = 338;
}
);
unicode = 114;
}
{
glyphname = s;
layers = (
{
hints = (
{
horizontal = 1;
place = (-11,61);
type = Stem;
},
{
horizontal = 1;
place = (369,61);
type = Stem;
},
{
place = (-3,112);
type = Stem;
},
{
place = (219,105);
type = Stem;
}
);
layerId = "F75699C9-9800-49D7-954F-48F025B39DD4";
shapes = (
{
closed = 1;
nodes = (
(347,393,o),
(285,430,o),
(213,430,cs),
(124,430,o),
(51,374,o),
(51,297,cs),
(51,265,o),
(64,230,o),
(104,201,cs),
(171,153,ls),
(202,131,o),
(218,115,o),
(218,93,cs),
(218,70,o),
(196,49,o),
(161,49,cs),
(139,49,o),
(119,57,o),
(103,67,c),
(106,79,o),
(110,91,o),
(110,100,cs),
(110,132,o),
(92,156,o),
(56,156,cs),
(26,156,o),
(-3,131,o),
(-3,91,cs),
(-3,43,o),
(52,-11,o),
(152,-11,cs),
(250,-11,o),
(324,48,o),
(324,126,cs),
(324,173,o),
(294,211,o),
(261,234,cs),
(199,277,ls),
(161,303,o),
(157,320,o),
(157,334,cs),
(157,358,o),
(181,370,o),
(209,370,cs),
(213,370,o),
(226,369,o),
(245,364,c),
(242,353,o),
(241,344,o),
(241,337,cs),
(241,304,o),
(266,284,o),
(294,284,cs),
(316,284,o),
(347,300,o),
(347,339,cs)
);
}
);
width = 353;
}
);
unicode = 115;
}
{
glyphname = t;
layers = (
{
hints = (
{
horizontal = 1;
place = (-10,71);
type = Stem;
},
{
horizontal = 1;
place = (354,71);
type = Stem;
},
{
place = (36,122);
type = Stem;
}
);
layerId = "F75699C9-9800-49D7-954F-48F025B39DD4";
shapes = (
{
closed = 1;
nodes = (
(233,425,l),
(271,580,l),
(207,580,ls),
(173,580,o),
(151,577,o),
(146,558,cs),
(124,466,ls),
(120,451,o),
(115,431,o),
(103,428,cs),
(66,419,o),
(64,417,o),
(59,396,cs),
(49,355,l),
(96,355,l),
(43,136,ls),
(41,126,o),
(36,98,o),
(36,87,cs),
(36,5,o),
(102,-10,o),
(142,-10,cs),
(199,-10,o),
(256,17,o),
(256,36,cs),
(256,41,o),
(254,49,o),
(253,52,cs),
(243,76,l),
(226,66,o),
(207,59,o),
(190,59,cs),
(167,59,o),
(155,68,o),
(155,86,cs),
(155,95,o),
(157,108,o),
(158,114,cs),
(216,355,l),
(303,355,l),
(320,425,l)
);
}
);
width = 288;
}
);
unicode = 116;
}
{
glyphname = u;
layers = (
{
hints = (
{
horizontal = 1;
place = (-10,87);
type = Stem;
},
{
place = (42,122);
type = Stem;
}
);
layerId = "F75699C9-9800-49D7-954F-48F025B39DD4";
shapes = (
{
closed = 1;
nodes = (
(481,423,o),
(479,430,o),
(469,430,cs),
(462,430,o),
(432,417,o),
(427,416,c),
(394,405,o),
(341,397,o),
(313,392,c),
(309,374,ls),
(308,370,o),
(305,360,o),
(305,354,cs),
(305,344,o),
(310,342,o),
(325,336,cs),
(331,334,o),
(339,329,o),
(339,320,cs),
(339,315,o),
(336,303,o),
(335,298,cs),
(293,120,l),
(275,105,o),
(243,77,o),
(205,77,cs),
(181,77,o),
(163,93,o),
(163,115,cs),
(163,125,o),
(165,142,o),
(168,156,cs),
(224,385,ls),
(226,392,o),
(230,409,o),
(230,416,cs),
(230,423,o),
(226,430,o),
(217,430,cs),
(209,430,o),
(180,418,o),
(174,416,cs),
(139,406,o),
(83,395,o),
(62,392,c),
(57,374,ls),
(56,370,o),
(53,360,o),
(53,354,cs),
(53,344,o),
(58,342,o),
(73,336,cs),
(84,332,o),
(87,327,o),
(87,317,cs),
(87,310,o),
(85,301,o),
(84,296,cs),
(57,190,ls),
(52,170,o),
(42,138,o),
(42,98,cs),
(42,39,o),
(83,-10,o),
(148,-10,cs),
(207,-10,o),
(251,25,o),
(283,51,c),
(290,25,o),
(304,-10,o),
(361,-10,cs),
(405,-10,o),
(463,16,o),
(463,34,cs),
(463,38,o),
(462,43,o),
(460,49,cs),
(451,72,l),
(433,65,o),
(430,64,o),
(420,64,cs),
(413,64,o),
(404,72,o),
(404,82,cs),
(404,91,o),
(407,108,o),
(411,125,cs),
(475,388,ls),
(477,395,o),
(481,413,o),
(481,416,cs)
);
}
);
width = 504;
}
);
unicode = 117;
}
{
glyphname = v;
layers = (
{
hints = (
{
horizontal = 1;
place = (-10,87);
type = Stem;
},
{
place = (43,122);
type = Stem;
},
{
place = (361,66);
type = Stem;
}
);
layerId = "F75699C9-9800-49D7-954F-48F025B39DD4";
shapes = (
{
closed = 1;
nodes = (
(427,379,o),
(425,460,o),
(361,460,cs),
(335,460,o),
(306,437,o),
(306,403,cs),
(306,386,o),
(314,350,o),
(360,344,c),
(354,179,o),
(269,77,o),
(213,77,cs),
(185,77,o),
(163,93,o),
(163,120,cs),
(163,136,o),
(167,156,o),
(171,174,cs),
(223,385,ls),
(226,396,o),
(229,409,o),
(229,416,cs),
(229,423,o),
(225,430,o),
(216,430,cs),
(208,430,o),
(182,419,o),
(173,416,cs),
(138,406,o),
(81,395,o),
(60,392,c),
(55,374,ls),
(54,370,o),
(51,360,o),
(51,354,cs),
(51,344,o),
(57,342,o),
(72,336,cs),
(83,332,o),
(86,327,o),
(86,317,cs),
(86,310,o),
(85,301,o),
(84,296,cs),
(57,191,ls),
(52,170,o),
(43,143,o),
(43,103,cs),
(43,36,o),
(99,-10,o),
(168,-10,cs),
(327,-10,o),
(427,186,o),
(427,365,cs)
);
}
);
width = 436;
}
);
unicode = 118;
}
{
glyphname = w;
layers = (
{
hints = (
{
horizontal = 1;
place = (-10,87);
type = Stem;
},
{
place = (43,122);
type = Stem;
},
{
place = (599,66);
type = Stem;
}
);
layerId = "F75699C9-9800-49D7-954F-48F025B39DD4";
shapes = (
{
closed = 1;
nodes = (
(665,379,o),
(663,460,o),
(599,460,cs),
(574,460,o),
(544,437,o),
(544,403,cs),
(544,386,o),
(553,350,o),
(598,344,c),
(593,179,o),
(510,76,o),
(452,76,cs),
(425,76,o),
(410,93,o),
(410,120,cs),
(410,136,o),
(413,156,o),
(418,174,cs),
(480,420,l),
(360,420,l),
(298,180,ls),
(278,101,o),
(247,77,o),
(211,77,cs),
(183,77,o),
(163,93,o),
(163,120,cs),
(163,136,o),
(167,156,o),
(171,174,cs),
(223,385,ls),
(226,396,o),
(229,409,o),
(229,416,cs),
(229,423,o),
(225,430,o),
(216,430,cs),
(208,430,o),
(182,419,o),
(173,416,cs),
(138,406,o),
(81,395,o),
(60,392,c),
(55,374,ls),
(54,370,o),
(51,360,o),
(51,354,cs),
(51,344,o),
(57,342,o),
(72,336,cs),
(83,332,o),
(86,327,o),
(86,317,cs),
(86,310,o),
(85,301,o),
(84,296,cs),
(57,191,ls),
(52,170,o),
(43,143,o),
(43,103,cs),
(43,36,o),
(95,-10,o),
(164,-10,cs),
(218,-10,o),
(274,33,o),
(299,64,c),
(313,20,o),
(353,-10,o),
(408,-10,cs),
(566,-10,o),
(665,186,o),
(665,365,cs)
);
}
);
width = 674;
}
);
unicode = 119;
}
{
glyphname = x;
layers = (
{
hints = (
{
horizontal = 1;
place = (-10,87);
type = Stem;
},
{
horizontal = 1;
place = (314,114);
type = Stem;
}
);
layerId = "F75699C9-9800-49D7-954F-48F025B39DD4";
shapes = (
{
closed = 1;
nodes = (
(468,409,o),
(439,428,o),
(411,428,cs),
(363,428,o),
(303,355,o),
(267,304,c),
(251,349,o),
(228,428,o),
(152,428,cs),
(94,428,o),
(41,383,o),
(41,365,cs),
(41,359,o),
(41,356,o),
(46,350,cs),
(60,331,l),
(90,351,o),
(98,352,o),
(106,352,cs),
(123,352,o),
(129,340,o),
(133,332,c),
(142,308,o),
(156,278,o),
(172,206,c),
(123,139,o),
(118,127,o),
(81,95,c),
(67,108,o),
(57,117,o),
(35,117,cs),
(-7,117,o),
(-23,82,o),
(-23,57,cs),
(-23,24,o),
(3,-8,o),
(39,-8,cs),
(75,-8,o),
(132,38,o),
(194,136,c),
(210,56,o),
(228,-10,o),
(304,-10,cs),
(364,-10,o),
(417,34,o),
(417,55,cs),
(417,59,o),
(415,63,o),
(412,69,cs),
(401,89,l),
(383,77,o),
(365,72,o),
(351,72,cs),
(331,72,o),
(320,97,o),
(313,117,cs),
(300,158,o),
(291,201,o),
(285,233,c),
(334,298,o),
(342,305,o),
(371,331,c),
(381,323,o),
(392,313,o),
(413,313,cs),
(437,313,o),
(468,332,o),
(468,371,cs)
);
}
);
width = 440;
}
);
unicode = 120;
}
{
glyphname = y;
layers = (
{
hints = (
{
horizontal = 1;
place = (-195,134);
type = Stem;
},
{
horizontal = 1;
place = (359,71);
type = Stem;
},
{
place = (328,112);
type = Stem;
}
);
layerId = "F75699C9-9800-49D7-954F-48F025B39DD4";
shapes = (
{
closed = 1;
nodes = (
(440,400,o),
(416,430,o),
(383,430,cs),
(348,430,o),
(326,396,o),
(326,370,cs),
(326,338,o),
(348,324,o),
(359,316,c),
(350,296,o),
(345,285,o),
(330,262,cs),
(318,243,o),
(257,147,o),
(244,126,c),
(210,323,ls),
(193,420,o),
(151,430,o),
(116,430,cs),
(78,430,o),
(9,405,o),
(9,383,cs),
(9,377,o),
(12,373,o),
(13,370,cs),
(25,347,l),
(29,349,o),
(43,355,o),
(55,355,cs),
(83,355,o),
(90,331,o),
(98,287,cs),
(151,-4,l),
(142,-19,o),
(96,-95,o),
(35,-122,c),
(29,-61,o),
(-17,-61,o),
(-25,-61,cs),
(-62,-61,o),
(-83,-92,o),
(-83,-121,cs),
(-83,-157,o),
(-49,-195,o),
(2,-195,cs),
(93,-195,o),
(179,-77,o),
(249,26,cs),
(339,159,ls),
(350,175,o),
(375,213,o),
(410,277,cs),
(433,320,o),
(440,344,o),
(440,368,cs)
);
}
);
width = 427;
}
);
unicode = 121;
}
{
glyphname = z;
layers = (
{
hints = (
{
horizontal = 1;
place = (7,102);
type = Stem;
},
{
horizontal = 1;
place = (334,94);
type = Stem;
},
{
place = (296,94);
type = Stem;
}
);
layerId = "F75699C9-9800-49D7-954F-48F025B39DD4";
shapes = (
{
closed = 1;
nodes = (
(387,438,l),
(369,428,o),
(349,417,o),
(286,417,cs),
(265,417,o),
(250,418,o),
(238,420,cs),
(183,427,o),
(177,428,o),
(161,428,cs),
(67,428,o),
(34,333,o),
(34,325,cs),
(34,323,o),
(34,316,o),
(42,311,cs),
(63,296,l),
(73,309,o),
(89,330,o),
(122,330,cs),
(134,330,o),
(198,322,o),
(211,322,cs),
(232,322,o),
(245,324,o),
(256,327,c),
(258,325,l),
(-23,33,l),
(-9,0,l),
(20,2,o),
(35,7,o),
(86,7,cs),
(115,7,o),
(156,3,o),
(163,2,cs),
(232,-8,o),
(236,-10,o),
(254,-10,cs),
(320,-10,o),
(390,37,o),
(390,120,cs),
(390,170,o),
(355,181,o),
(337,181,cs),
(317,181,o),
(296,166,o),
(296,137,cs),
(296,125,o),
(298,115,o),
(306,108,cs),
(325,90,o),
(328,85,o),
(328,78,cs),
(328,67,o),
(318,63,o),
(313,63,cs),
(305,63,o),
(292,71,o),
(291,72,c),
(254,96,o),
(207,108,o),
(164,108,cs),
(151,108,o),
(141,105,o),
(131,102,c),
(129,104,l),
(244,224,o),
(275,249,o),
(412,396,c)
);
}
);
width = 405;
}
);
unicode = 122;
}
{
glyphname = braceleft;
layers = (
{
hints = (
{
horizontal = 1;
place = (733,-20);
target = down;
type = TopGhost;
},
{
place = (47,112);
type = Stem;
}
);
layerId = "F75699C9-9800-49D7-954F-48F025B39DD4";
shapes = (
{
closed = 1;
nodes = (
(436,733,l),
(314,733,o),
(192,663,o),
(169,539,cs),
(162,499,o),
(159,457,o),
(153,420,cs),
(139,338,o),
(105,310,o),
(33,297,c),
(24,258,l),
(74,246,o),
(85,218,o),
(85,175,cs),
(85,160,o),
(83,145,o),
(80,129,cs),
(73,91,o),
(58,50,o),
(50,9,cs),
(47,-6,o),
(47,-22,o),
(47,-36,cs),
(47,-130,o),
(112,-197,o),
(214,-197,c),
(225,-156,l),
(166,-141,o),
(158,-110,o),
(158,-64,cs),
(158,-48,o),
(160,-32,o),
(163,-12,cs),
(170,35,o),
(181,68,o),
(187,102,cs),
(189,116,o),
(190,128,o),
(190,140,cs),
(190,201,o),
(145,251,o),
(92,272,c),
(170,294,o),
(257,342,o),
(274,442,cs),
(280,475,o),
(282,510,o),
(290,556,cs),
(304,635,o),
(331,670,o),
(427,690,c)
);
}
);
width = 348;
}
);
unicode = 123;
}
{
glyphname = bar;
layers = (
{
hints = (
{
horizontal = 1;
place = (730,-20);
target = down;
type = TopGhost;
},
{
place = (26,75);
type = Stem;
}
);
layerId = "F75699C9-9800-49D7-954F-48F025B39DD4";
shapes = (
{
closed = 1;
nodes = (
(106,730,l),
(26,730,l),
(26,-190,l),
(106,-190,l)
);
}
);
width = 81;
}
);
unicode = 124;
}
{
glyphname = braceright;
layers = (
{
hints = (
{
horizontal = 1;
place = (733,-20);
target = down;
type = TopGhost;
},
{
place = (205,112);
type = Stem;
}
);
layerId = "F75699C9-9800-49D7-954F-48F025B39DD4";
shapes = (
{
closed = 1;
nodes = (
(340,278,l),
(290,290,o),
(279,318,o),
(279,361,cs),
(279,376,o),
(281,391,o),
(284,407,cs),
(291,445,o),
(306,486,o),
(313,527,cs),
(316,542,o),
(317,558,o),
(317,572,cs),
(317,666,o),
(253,733,o),
(150,733,c),
(139,692,l),
(198,677,o),
(206,646,o),
(206,600,cs),
(206,584,o),
(203,568,o),
(200,548,cs),
(193,501,o),
(182,468,o),
(177,434,cs),
(175,420,o),
(174,408,o),
(174,396,cs),
(174,335,o),
(218,285,o),
(272,264,c),
(194,242,o),
(107,194,o),
(90,94,cs),
(85,61,o),
(82,26,o),
(74,-20,cs),
(60,-99,o),
(33,-134,o),
(-63,-154,c),
(-72,-197,l),
(48,-197,o),
(173,-127,o),
(195,-3,cs),
(202,37,o),
(205,79,o),
(211,116,cs),
(225,198,o),
(258,226,o),
(331,239,c)
);
}
);
width = 348;
}
);
unicode = 125;
}
{
glyphname = asciitilde;
layers = (
{
hints = (
{
horizontal = 1;
place = (195,102);
type = Stem;
},
{
horizontal = 1;
place = (297,102);
type = Stem;
}
);
layerId = "F75699C9-9800-49D7-954F-48F025B39DD4";
shapes = (
{
closed = 1;
nodes = (
(599,413,l),
(591,354,o),
(572,297,o),
(519,297,cs),
(487,297,o),
(459,322,o),
(415,353,cs),
(369,385,o),
(349,399,o),
(298,399,cs),
(200,399,o),
(133,307,o),
(126,183,c),
(187,183,l),
(195,241,o),
(214,299,o),
(267,299,cs),
(303,299,o),
(331,277,o),
(374,246,cs),
(427,208,o),
(448,195,o),
(488,195,cs),
(588,195,o),
(653,288,o),
(660,413,c)
);
}
);
width = 740;
}
);
unicode = 126;
}
{
glyphname = exclamdown;
layers = (
{
hints = (
{
horizontal = 1;
place = (392,160);
type = Stem;
},
{
place = (-39,150);
type = Stem;
}
);
layerId = "F75699C9-9800-49D7-954F-48F025B39DD4";
shapes = (
{
closed = 1;
nodes = (
(256,516,o),
(223,552,o),
(181,552,cs),
(140,552,o),
(105,516,o),
(105,472,cs),
(105,429,o),
(140,393,o),
(181,393,cs),
(223,393,o),
(256,429,o),
(256,472,cs)
);
},
{
closed = 1;
nodes = (
(119,314,l),
(114,301,o),
(99,260,o),
(90,233,cs),
(46,108,o),
(36,81,o),
(-9,-23,cs),
(-36,-86,o),
(-39,-105,o),
(-39,-129,cs),
(-39,-170,o),
(-9,-198,o),
(33,-198,cs),
(104,-198,o),
(112,-117,o),
(116,-41,cs),
(122,72,o),
(138,163,o),
(166,301,c)
);
}
);
width = 263;
}
);
unicode = 161;
}
{
glyphname = sterling;
layers = (
{
hints = (
{
horizontal = 1;
place = (-6,87);
type = Stem;
},
{
horizontal = 1;
place = (304,53);
type = Stem;
},
{
horizontal = 1;
place = (610,71);
type = Stem;
},
{
place = (428,112);
type = Stem;
}
);
layerId = "F75699C9-9800-49D7-954F-48F025B39DD4";
shapes = (
{
closed = 1;
nodes = (
(540,631,o),
(487,681,o),
(405,681,cs),
(291,681,o),
(194,591,o),
(170,423,cs),
(166,399,o),
(166,384,o),
(165,359,c),
(80,359,l),
(66,304,l),
(162,304,l),
(150,227,o),
(136,170,o),
(91,135,cs),
(38,95,o),
(13,82,o),
(13,40,cs),
(13,23,o),
(22,-10,o),
(61,-10,cs),
(97,-10,o),
(127,21,o),
(158,77,c),
(199,46,o),
(288,-6,o),
(357,-6,cs),
(425,-6,o),
(489,30,o),
(489,95,cs),
(489,132,o),
(466,164,o),
(430,164,cs),
(405,164,o),
(370,145,o),
(370,93,c),
(361,88,o),
(345,86,o),
(334,86,cs),
(281,86,o),
(228,121,o),
(201,144,c),
(233,193,o),
(261,231,o),
(279,304,c),
(404,304,l),
(418,359,l),
(288,359,l),
(295,422,o),
(288,454,o),
(295,507,cs),
(307,589,o),
(360,615,o),
(388,615,cs),
(408,615,o),
(424,610,o),
(435,601,c),
(429,587,o),
(424,576,o),
(424,558,cs),
(424,523,o),
(449,500,o),
(479,500,cs),
(505,500,o),
(540,523,o),
(540,570,cs)
);
}
);
width = 526;
}
);
unicode = 163;
}
{
glyphname = degree;
layers = (
{
hints = (
{
horizontal = 1;
place = (454,61);
type = Stem;
},
{
horizontal = 1;
place = (669,61);
type = Stem;
},
{
place = (97,66);
type = Stem;
},
{
place = (295,66);
type = Stem;
}
);
layerId = "F75699C9-9800-49D7-954F-48F025B39DD4";
shapes = (
{
closed = 1;
nodes = (
(361,669,o),
(302,730,o),
(229,730,cs),
(156,730,o),
(97,669,o),
(97,592,cs),
(97,515,o),
(156,454,o),
(229,454,cs),
(302,454,o),
(361,515,o),
(361,592,cs)
);
},
{
closed = 1;
nodes = (
(299,550,o),
(271,513,o),
(229,513,cs),
(187,513,o),
(160,550,o),
(160,592,cs),
(160,634,o),
(187,671,o),
(229,671,cs),
(271,671,o),
(299,634,o),
(299,592,cs)
);
}
);
width = 337;
}
);
unicode = 176;
}
{
glyphname = plusminus;
layers = (
{
hints = (
{
horizontal = 1;
place = (340,73);
type = Stem;
},
{
place = (397,69);
type = Stem;
}
);
layerId = "F75699C9-9800-49D7-954F-48F025B39DD4";
shapes = (
{
closed = 1;
nodes = (
(666,437,l),
(441,437,l),
(441,652,l),
(356,652,l),
(356,437,l),
(131,437,l),
(131,352,l),
(356,352,l),
(356,137,l),
(441,137,l),
(441,352,l),
(666,352,l)
);
},
{
closed = 1;
nodes = (
(666,85,l),
(131,85,l),
(131,0,l),
(666,0,l)
);
}
);
width = 740;
}
);
unicode = 177;
}
{
glyphname = periodcentered;
layers = (
{
hints = (
{
horizontal = 1;
place = (548,138);
type = Stem;
},
{
place = (92,137);
type = Stem;
}
);
layerId = "F75699C9-9800-49D7-954F-48F025B39DD4";
shapes = (
{
closed = 1;
nodes = (
(219,385,o),
(187,419,o),
(148,419,cs),
(109,419,o),
(76,385,o),
(76,344,cs),
(76,302,o),
(109,268,o),
(148,268,cs),
(187,268,o),
(219,302,o),
(219,344,cs)
);
}
);
width = 252;
}
);
unicode = 183;
}
{
glyphname = questiondown;
layers = (
{
hints = (
{
horizontal = 1;
place = (-198,61);
type = Stem;
},
{
horizontal = 1;
place = (392,160);
type = Stem;
},
{
place = (-18,122);
type = Stem;
},
{
place = (179,122);
type = Stem;
}
);
layerId = "F75699C9-9800-49D7-954F-48F025B39DD4";
shapes = (
{
closed = 1;
nodes = (
(355,516,o),
(322,552,o),
(280,552,cs),
(238,552,o),
(204,516,o),
(204,472,cs),
(204,429,o),
(238,393,o),
(280,393,cs),
(322,393,o),
(355,429,o),
(355,472,cs)
);
},
{
closed = 1;
nodes = (
(301,-54,o),
(278,-22,o),
(238,-22,cs),
(205,-22,o),
(175,-45,o),
(175,-89,cs),
(175,-107,o),
(180,-116,o),
(185,-126,c),
(177,-131,o),
(167,-137,o),
(154,-137,cs),
(126,-137,o),
(103,-111,o),
(103,-61,cs),
(103,7,o),
(142,54,o),
(190,113,cs),
(238,173,o),
(266,216,o),
(273,293,c),
(219,298,l),
(201,248,o),
(181,194,o),
(106,135,cs),
(26,71,o),
(-18,37,o),
(-18,-43,cs),
(-18,-128,o),
(47,-198,o),
(144,-198,cs),
(201,-198,o),
(301,-173,o),
(301,-85,cs)
);
}
);
width = 416;
}
);
unicode = 191;
}
{
glyphname = multiply;
layers = (
{
layerId = "F75699C9-9800-49D7-954F-48F025B39DD4";
shapes = (
{
closed = 1;
nodes = (
(455,294,l),
(645,483,l),
(586,542,l),
(397,352,l),
(208,542,l),
(149,483,l),
(339,294,l),
(146,104,l),
(206,44,l),
(397,236,l),
(586,43,l),
(646,103,l)
);
}
);
width = 740;
}
);
unicode = 215;
}
{
glyphname = divide;
layers = (
{
hints = (
{
horizontal = 1;
place = (31,127);
type = Stem;
},
{
horizontal = 1;
place = (250,87);
type = Stem;
},
{
horizontal = 1;
place = (427,127);
type = Stem;
},
{
place = (333,129);
type = Stem;
}
);
layerId = "F75699C9-9800-49D7-954F-48F025B39DD4";
shapes = (
{
closed = 1;
nodes = (
(462,525,o),
(433,554,o),
(398,554,cs),
(362,554,o),
(333,525,o),
(333,490,cs),
(333,454,o),
(362,425,o),
(398,425,cs),
(433,425,o),
(462,454,o),
(462,490,cs)
);
},
{
closed = 1;
nodes = (
(665,335,l),
(130,335,l),
(130,250,l),
(665,250,l)
);
},
{
closed = 1;
nodes = (
(462,131,o),
(433,160,o),
(398,160,cs),
(362,160,o),
(333,131,o),
(333,96,cs),
(333,60,o),
(362,31,o),
(398,31,cs),
(433,31,o),
(462,60,o),
(462,96,cs)
);
}
);
width = 740;
}
);
unicode = 247;
}
{
glyphname = tilde;
layers = (
{
hints = (
{
horizontal = 1;
place = (547,78);
type = Stem;
}
);
layerId = "F75699C9-9800-49D7-954F-48F025B39DD4";
shapes = (
{
closed = 1;
nodes = (
(362,628,l),
(354,599,o),
(332,578,o),
(308,578,cs),
(290,578,o),
(277,585,o),
(254,602,cs),
(231,618,o),
(218,625,o),
(187,625,cs),
(133,625,o),
(84,570,o),
(69,497,c),
(110,497,l),
(118,526,o),
(141,547,o),
(163,547,cs),
(183,547,o),
(196,541,o),
(217,525,cs),
(244,505,o),
(261,500,o),
(284,500,cs),
(337,500,o),
(388,555,o),
(403,628,c)
);
}
);
width = 389;
}
);
unicode = 732;
}
{
glyphname = endash;
layers = (
{
hints = (
{
horizontal = 1;
place = (170,87);
type = Stem;
}
);
layerId = "F75699C9-9800-49D7-954F-48F025B39DD4";
shapes = (
{
closed = 1;
nodes = (
(47,255,l),
(23,170,l),
(433,170,l),
(458,255,l)
);
}
);
width = 485;
}
);
unicode = 8211;
}
{
glyphname = emdash;
layers = (
{
hints = (
{
horizontal = 1;
place = (170,87);
type = Stem;
}
);
layerId = "F75699C9-9800-49D7-954F-48F025B39DD4";
shapes = (
{
closed = 1;
nodes = (
(47,255,l),
(23,170,l),
(979,170,l),
(1004,255,l)
);
}
);
width = 1032;
}
);
unicode = 8212;
}
{
glyphname = quoteleft;
layers = (
{
hints = (
{
horizontal = 1;
place = (740,-20);
target = down;
type = TopGhost;
},
{
place = (117,150);
type = Stem;
}
);
layerId = "F75699C9-9800-49D7-954F-48F025B39DD4";
shapes = (
{
closed = 1;
nodes = (
(279,740,l),
(214,709,o),
(117,628,o),
(117,525,cs),
(117,468,o),
(149,426,o),
(193,426,cs),
(227,426,o),
(266,460,o),
(266,507,cs),
(266,561,o),
(223,577,o),
(203,585,c),
(209,608,o),
(224,658,o),
(299,696,c)
);
}
);
width = 262;
}
);
unicode = 8216;
}
{
glyphname = quoteright;
layers = (
{
hints = (
{
horizontal = 1;
place = (740,-20);
target = down;
type = TopGhost;
},
{
place = (144,150);
type = Stem;
}
);
layerId = "F75699C9-9800-49D7-954F-48F025B39DD4";
shapes = (
{
closed = 1;
nodes = (
(294,698,o),
(263,740,o),
(218,740,cs),
(184,740,o),
(145,706,o),
(145,659,cs),
(145,605,o),
(188,589,o),
(208,581,c),
(202,558,o),
(187,508,o),
(112,470,c),
(132,426,l),
(197,457,o),
(294,538,o),
(294,641,cs)
);
}
);
width = 262;
}
);
unicode = 8217;
}
{
glyphname = quotesinglbase;
layers = (
{
hints = (
{
horizontal = 1;
place = (740,-20);
target = down;
type = TopGhost;
},
{
place = (61,137);
type = Stem;
}
);
layerId = "F75699C9-9800-49D7-954F-48F025B39DD4";
shapes = (
{
closed = 1;
nodes = (
(181,107,o),
(150,149,o),
(105,149,cs),
(71,149,o),
(32,115,o),
(32,68,cs),
(32,14,o),
(75,-2,o),
(95,-10,c),
(89,-33,o),
(74,-83,o),
(-1,-121,c),
(19,-165,l),
(84,-134,o),
(181,-53,o),
(181,50,cs)
);
}
);
width = 262;
}
);
unicode = 8218;
}
{
glyphname = quotedblleft;
layers = (
{
hints = (
{
horizontal = 1;
place = (740,-20);
target = down;
type = TopGhost;
},
{
place = (117,150);
type = Stem;
},
{
place = (306,150);
type = Stem;
}
);
layerId = "F75699C9-9800-49D7-954F-48F025B39DD4";
shapes = (
{
closed = 1;
nodes = (
(469,740,l),
(404,709,o),
(307,628,o),
(307,525,cs),
(307,468,o),
(339,426,o),
(383,426,cs),
(417,426,o),
(456,460,o),
(456,507,cs),
(456,561,o),
(413,577,o),
(393,585,c),
(399,608,o),
(414,658,o),
(489,696,c)
);
},
{
closed = 1;
nodes = (
(279,740,l),
(214,709,o),
(117,628,o),
(117,525,cs),
(117,468,o),
(149,426,o),
(193,426,cs),
(227,426,o),
(266,460,o),
(266,507,cs),
(266,561,o),
(223,577,o),
(203,585,c),
(209,608,o),
(224,658,o),
(299,696,c)
);
}
);
width = 452;
}
);
unicode = 8220;
}
{
glyphname = quotedblright;
layers = (
{
hints = (
{
horizontal = 1;
place = (740,-20);
target = down;
type = TopGhost;
},
{
place = (145,150);
type = Stem;
},
{
place = (334,150);
type = Stem;
}
);
layerId = "F75699C9-9800-49D7-954F-48F025B39DD4";
shapes = (
{
closed = 1;
nodes = (
(484,698,o),
(453,740,o),
(408,740,cs),
(374,740,o),
(335,706,o),
(335,659,cs),
(335,605,o),
(378,589,o),
(398,581,c),
(392,558,o),
(377,508,o),
(302,470,c),
(322,426,l),
(387,457,o),
(484,538,o),
(484,641,cs)
);
},
{
closed = 1;
nodes = (
(294,698,o),
(263,740,o),
(218,740,cs),
(184,740,o),
(145,706,o),
(145,659,cs),
(145,605,o),
(188,589,o),
(208,581,c),
(202,558,o),
(187,508,o),
(112,470,c),
(132,426,l),
(197,457,o),
(294,538,o),
(294,641,cs)
);
}
);
width = 452;
}
);
unicode = 8221;
}
{
glyphname = quotedblbase;
layers = (
{
hints = (
{
horizontal = 1;
place = (740,-20);
target = down;
type = TopGhost;
},
{
place = (61,137);
type = Stem;
},
{
place = (246,137);
type = Stem;
}
);
layerId = "F75699C9-9800-49D7-954F-48F025B39DD4";
shapes = (
{
closed = 1;
nodes = (
(371,107,o),
(340,149,o),
(295,149,cs),
(261,149,o),
(222,115,o),
(222,68,cs),
(222,14,o),
(265,-2,o),
(285,-10,c),
(279,-33,o),
(264,-83,o),
(189,-121,c),
(209,-165,l),
(274,-134,o),
(371,-53,o),
(371,50,cs)
);
},
{
closed = 1;
nodes = (
(181,107,o),
(150,149,o),
(105,149,cs),
(71,149,o),
(32,115,o),
(32,68,cs),
(32,14,o),
(75,-2,o),
(95,-10,c),
(89,-33,o),
(74,-83,o),
(-1,-121,c),
(19,-165,l),
(84,-134,o),
(181,-53,o),
(181,50,cs)
);
}
);
width = 452;
}
);
unicode = 8222;
}
{
glyphname = bullet;
layers = (
{
layerId = "F75699C9-9800-49D7-954F-48F025B39DD4";
shapes = (
{
closed = 1;
nodes = (
(405,456,o),
(318,544,o),
(212,544,cs),
(105,544,o),
(18,456,o),
(18,350,cs),
(18,244,o),
(105,156,o),
(212,156,cs),
(318,156,o),
(405,244,o),
(405,350,cs)
);
}
);
width = 423;
}
);
unicode = 8226;
}
{
glyphname = ellipsis;
layers = (
{
hints = (
{
horizontal = 1;
place = (-10,160);
type = Stem;
},
{
place = (42,150);
type = Stem;
},
{
place = (376,150);
type = Stem;
},
{
place = (708,150);
type = Stem;
}
);
layerId = "F75699C9-9800-49D7-954F-48F025B39DD4";
shapes = (
{
closed = 1;
nodes = (
(789,113,o),
(755,149,o),
(714,149,cs),
(673,149,o),
(638,113,o),
(638,70,cs),
(638,26,o),
(673,-10,o),
(714,-10,cs),
(755,-10,o),
(789,26,o),
(789,70,cs)
);
},
{
closed = 1;
nodes = (
(492,113,o),
(458,149,o),
(417,149,cs),
(376,149,o),
(341,113,o),
(341,70,cs),
(341,26,o),
(376,-10,o),
(417,-10,cs),
(458,-10,o),
(492,26,o),
(492,70,cs)
);
},
{
closed = 1;
nodes = (
(195,113,o),
(161,149,o),
(120,149,cs),
(79,149,o),
(44,113,o),
(44,70,cs),
(44,26,o),
(79,-10,o),
(120,-10,cs),
(161,-10,o),
(195,26,o),
(195,70,cs)
);
}
);
width = 890;
}
);
unicode = 8230;
}
{
glyphname = Euro;
layers = (
{
hints = (
{
horizontal = 1;
place = (-10,78);
type = Stem;
},
{
horizontal = 1;
place = (246,47);
type = Stem;
},
{
horizontal = 1;
place = (377,47);
type = Stem;
},
{
horizontal = 1;
place = (620,61);
type = Stem;
},
{
place = (103,122);
type = Stem;
},
{
place = (457,135);
type = Stem;
}
);
layerId = "F75699C9-9800-49D7-954F-48F025B39DD4";
shapes = (
{
closed = 1;
nodes = (
(592,637,o),
(534,681,o),
(447,681,cs),
(323,681,o),
(203,591,o),
(141,424,c),
(66,424,l),
(55,373,l),
(124,373,l),
(117,348,o),
(113,324,o),
(109,297,c),
(43,297,l),
(31,246,l),
(104,246,l),
(103,235,o),
(103,225,o),
(103,215,cs),
(103,83,o),
(173,-10,o),
(301,-10,cs),
(430,-10,o),
(527,86,o),
(527,115,cs),
(527,120,o),
(524,127,o),
(519,133,cs),
(497,163,l),
(461,117,o),
(397,69,o),
(339,69,cs),
(270,69,o),
(230,110,o),
(230,201,cs),
(230,215,o),
(230,229,o),
(232,246,c),
(380,246,l),
(391,297,l),
(239,297,l),
(244,326,o),
(249,347,o),
(255,373,c),
(434,373,l),
(445,424,l),
(268,424,l),
(307,550,o),
(361,619,o),
(436,619,cs),
(451,619,o),
(462,617,o),
(475,611,c),
(466,594,o),
(462,582,o),
(462,565,cs),
(462,524,o),
(493,497,o),
(528,497,cs),
(556,497,o),
(592,518,o),
(592,571,cs)
);
}
);
width = 566;
}
);
unicode = 8364;
}
{
glyphname = minus;
layers = (
{
hints = (
{
horizontal = 1;
place = (250,87);
type = Stem;
}
);
layerId = "F75699C9-9800-49D7-954F-48F025B39DD4";
shapes = (
{
closed = 1;
nodes = (
(665,335,l),
(130,335,l),
(130,250,l),
(665,250,l)
);
}
);
width = 740;
}
);
unicode = 8722;
}
